<svg xmlns="http://www.w3.org/2000/svg" width="15" height="15" viewBox="0 0 15 15"><g><g><g><path fill="#7835bb" d="M11.073 3.166c.575 0 1.04-.463 1.04-1.039V1.04c0-.576-.464-1.04-1.04-1.04-.575 0-1.04.464-1.04 1.04v1.088c.001.575.466 1.038 1.04 1.038z"/></g><g><path fill="#7835bb" d="M1.057 13.947v-8.45H13.73v8.45zM14.77 1.8h-2.095v.529a1.584 1.584 0 0 1-3.167 0v-.53H5.282v.53a1.586 1.586 0 0 1-3.168 0v-.53L0 1.774V15h13.73l1.056-.003z"/></g><g><path fill="#7835bb" d="M3.68 3.166c.576 0 1.042-.463 1.042-1.039V1.04a1.04 1.04 0 1 0-2.08 0v1.088c0 .575.463 1.038 1.039 1.038z"/></g><g><path fill="#7835bb" d="M5.285 8.1V6.63h1.664V8.1z"/></g><g><path fill="#7835bb" d="M7.976 8.1V6.63H9.64V8.1z"/></g><g><path fill="#7835bb" d="M10.471 8.1V6.63h1.665V8.1z"/></g><g><path fill="#7835bb" d="M5.285 10.538V9.07h1.664v1.468z"/></g><g><path fill="#7835bb" d="M7.976 10.538V9.07H9.64v1.468z"/></g><g><path fill="#7835bb" d="M10.471 10.538V9.07h1.665v1.468z"/></g><g><path fill="#7835bb" d="M5.285 13.026v-1.468h1.664v1.468z"/></g><g><path fill="#7835bb" d="M2.641 10.538V9.07h1.664v1.468z"/></g><g><path fill="#7835bb" d="M2.641 13.026v-1.468h1.664v1.468z"/></g><g><path fill="#7835bb" d="M7.976 13.026v-1.468H9.64v1.468z"/></g><g><path fill="#7835bb" d="M10.471 13.026v-1.468h1.665v1.468z"/></g></g></g></svg>