<svg xmlns="http://www.w3.org/2000/svg" width="12" height="15" viewBox="0 0 12 15"><g><g><g><path fill="#7835bb" d="M9.567 11.997a.434.434 0 0 0-.526.317l-.286 1.108-1.778-3.049c.027-.03.052-.06.077-.09.112-.134.281-.334.363-.361.094-.031.346.029.53.073.401.095.856.203 1.226-.07a.86.86 0 0 0 .078-.067l1.41 2.417zm-6.322 1.428l-.286-1.11a.434.434 0 0 0-.526-.318l-1.094.278 1.41-2.417c.024.023.05.046.078.067.37.273.824.165 1.225.07.185-.044.437-.104.53-.073.083.027.251.227.363.36l.084.099zm2.361-3.717c-.216-.257-.44-.523-.754-.627a1.073 1.073 0 0 0-.34-.05c-.223 0-.45.053-.658.103-.151.036-.43.102-.515.075-.053-.074-.077-.368-.09-.527-.026-.327-.056-.698-.256-.976-.197-.276-.518-.411-.828-.542-.148-.062-.418-.177-.47-.253.003-.09.147-.332.226-.464.17-.285.362-.607.362-.96s-.192-.675-.362-.96c-.079-.132-.223-.373-.226-.464.052-.076.322-.19.47-.252.31-.132.631-.267.828-.543.2-.278.23-.648.256-.975.013-.16.037-.454.09-.527.086-.028.364.038.515.074.316.075.673.16.998.053.314-.104.538-.37.754-.626.1-.12.308-.366.394-.383.086.017.293.264.394.383.216.257.44.522.754.626.324.108.682.022.998-.053.15-.036.429-.102.514-.074.054.073.078.367.09.527.027.327.057.697.256.975.198.276.519.411.83.543.146.062.417.176.47.252-.005.09-.149.332-.227.464-.17.285-.362.608-.362.96 0 .353.192.676.362.96.078.132.222.374.226.464-.052.076-.323.19-.47.253-.31.13-.631.267-.829.542-.199.278-.229.649-.255.976-.013.16-.037.453-.09.527-.086.027-.364-.039-.515-.075-.316-.075-.674-.16-.998-.053-.315.104-.538.37-.754.627-.1.119-.308.366-.394.382-.086-.016-.294-.263-.394-.382zm6.333 3.026L9.617 8.753c.015-.18.037-.45.092-.527.054-.075.298-.178.46-.246.366-.155.821-.347.965-.797.14-.436-.1-.839-.311-1.194-.1-.167-.237-.396-.237-.502 0-.106.137-.335.237-.502.211-.355.45-.757.311-1.194-.144-.45-.6-.642-.965-.797-.162-.068-.406-.171-.46-.246-.055-.078-.077-.349-.092-.528-.032-.399-.072-.895-.444-1.17-.37-.274-.825-.166-1.226-.07-.184.044-.436.104-.53.073-.082-.027-.25-.228-.363-.36C6.794.382 6.472 0 6 0c-.472 0-.795.384-1.055.692-.112.133-.28.334-.362.36-.094.032-.346-.028-.53-.072-.402-.096-.856-.204-1.226.07-.18.133-.3.33-.368.603-.045.184-.061.379-.076.567-.015.18-.037.45-.093.528-.053.075-.297.178-.46.246-.365.155-.82.347-.964.797-.14.437.1.84.311 1.194.1.167.236.396.236.502 0 .106-.136.335-.236.502-.211.355-.451.758-.311 1.194.144.45.6.642.965.797.162.068.406.171.46.246.055.078.077.347.091.527L.061 12.734a.448.448 0 0 0 .025.49.431.431 0 0 0 .454.164l1.686-.427.44 1.709a.437.437 0 0 0 .422.33c.151 0 .294-.08.373-.216l2.26-3.857a.856.856 0 0 0 .567-.003l2.25 3.86a.433.433 0 0 0 .435.212.437.437 0 0 0 .36-.326l.44-1.71 1.687.428c.17.044.349-.021.454-.164a.448.448 0 0 0 .025-.49z"/></g><g><path fill="#7835bb" d="M3.98 5.487c0-1.132.906-2.052 2.02-2.052 1.113 0 2.02.92 2.02 2.052C8.02 6.62 7.112 7.54 6 7.54c-1.114 0-2.02-.921-2.02-2.053zm4.909 0c0-1.619-1.296-2.936-2.89-2.936-1.592 0-2.888 1.317-2.888 2.936 0 1.62 1.296 2.937 2.889 2.937 1.593 0 2.889-1.318 2.889-2.937z"/></g></g></g></svg>