<svg xmlns="http://www.w3.org/2000/svg" width="21" height="21" viewBox="0 0 21 21"><g><g><g><path fill="#ee3023" d="M21 10.5C21 16.299 16.301 21 10.502 21c-5.798 0-10.5-4.701-10.5-10.5C.002 4.7 4.704 0 10.502 0 16.302 0 21 4.7 21 10.5"/></g><g><path fill="#fff" d="M10.585 16.354c-2.884.01-5.885-2.452-5.899-6.406-.01-2.614 1.403-5.132 3.204-6.625C9.65 1.868 12.06.933 14.243.925c.281 0 .577.023.756.085-1.91.395-3.43 2.174-3.424 4.19 0 .067.006.139.013.172 3.197.779 4.647 2.708 4.657 5.376.008 2.67-2.099 5.594-5.66 5.606"/></g></g></g></svg>