<svg xmlns="http://www.w3.org/2000/svg" width="21" height="19.32" viewBox="0 0 21 19.32">
  <g id="Path_146" data-name="Path 146" transform="translate(0 -20.4)" fill="none" stroke-linecap="square">
    <path d="M10.5,39.72,9.03,38.25C3.57,33.42,0,30.165,0,26.175A5.693,5.693,0,0,1,5.775,20.4,6.31,6.31,0,0,1,10.5,22.6a6.31,6.31,0,0,1,4.725-2.2A5.693,5.693,0,0,1,21,26.175c0,3.99-3.57,7.245-9.03,12.075Z" stroke="none"/>
    <path d="M 10.5 38.30577850341797 L 11.26288986206055 37.54288864135742 L 11.28452014923096 37.52126693725586 L 11.30743026733398 37.50099945068359 C 14.15019035339355 34.98624801635742 16.27703094482422 33.06675720214844 17.75996017456055 31.26252746582031 C 19.30915069580078 29.37768745422363 20 27.80863761901855 20 26.17499732971191 C 20 24.86784744262695 19.51203918457031 23.66000747680664 18.62602043151855 22.77397727966309 C 17.739990234375 21.8879566192627 16.53215026855469 21.39999771118164 15.22500038146973 21.39999771118164 C 13.74744033813477 21.39999771118164 12.2294397354126 22.10923767089844 11.26338958740234 23.25093841552734 L 10.5 24.15312767028809 L 9.736610412597656 23.25093841552734 C 8.770560264587402 22.10923767089844 7.252560138702393 21.39999771118164 5.775000095367432 21.39999771118164 C 4.467850208282471 21.39999771118164 3.260010004043579 21.8879566192627 2.373980045318604 22.77397727966309 C 1.487959980964661 23.66000747680664 1 24.86784744262695 1 26.17499732971191 C 1 27.80863761901855 1.690850019454956 29.37768745422363 3.240040063858032 31.26252746582031 C 4.722970008850098 33.06675720214844 6.849810123443604 34.98624801635742 9.692569732666016 37.50099945068359 L 9.715479850769043 37.52126693725586 L 9.737110137939453 37.54288864135742 L 10.5 38.30577850341797 M 10.5 39.71999740600586 L 9.029999732971191 38.24999618530273 C 3.569999933242798 33.41999816894531 0 30.16499710083008 0 26.17499732971191 C 0 22.91999816894531 2.519999980926514 20.39999771118164 5.775000095367432 20.39999771118164 C 7.559999942779541 20.39999771118164 9.345000267028809 21.23999786376953 10.5 22.6049976348877 C 11.65499973297119 21.23999786376953 13.4399995803833 20.39999771118164 15.22500038146973 20.39999771118164 C 18.47999954223633 20.39999771118164 21 22.91999816894531 21 26.17499732971191 C 21 30.16499710083008 17.43000030517578 33.41999816894531 11.97000026702881 38.24999618530273 L 10.5 39.71999740600586 Z" stroke="none" fill="#7835bb"/>
  </g>
</svg>
