<svg xmlns="http://www.w3.org/2000/svg" width="21" height="20" viewBox="0 0 21 20"><g><g><g><path fill="#7835bb" d="M7.426 7.087a.376.376 0 0 0 .283-.205L10.5 1.226l2.792 5.655c.055.111.16.188.283.206l6.242.907-4.517 4.403a.376.376 0 0 0-.108.333l1.066 6.216-5.582-2.935a.374.374 0 0 0-.35 0l-5.584 2.935L5.81 12.73a.376.376 0 0 0-.108-.333L1.184 7.994zM4.243 20.01c.06 0 .12-.014.175-.043L10.5 16.77l6.082 3.197a.377.377 0 0 0 .545-.396l-1.16-6.772L20.886 8a.375.375 0 0 0-.209-.641l-6.8-.988L10.838.21a.374.374 0 0 0-.674 0L7.122 6.372l-6.8.988A.377.377 0 0 0 .114 8l4.92 4.797-1.161 6.773a.375.375 0 0 0 .37.439z"/></g></g></g></svg>