<svg xmlns="http://www.w3.org/2000/svg" width="23" height="21" viewBox="0 0 23 21"><g><g><g><path fill="#7835bb" d="M21.014 9.521a1.142 1.142 0 1 1 0-2.285 1.142 1.142 0 0 1 0 2.285zm-5.332 5.332a1.143 1.143 0 1 1 0-2.285 1.143 1.143 0 0 1 0 2.285zm-7.237-.761a1.143 1.143 0 1 1 0-2.286 1.143 1.143 0 0 1 0 2.286zm-6.474 6.093a1.143 1.143 0 1 1 0-2.285 1.143 1.143 0 0 1 0 2.285zm19.043-13.71a1.901 1.901 0 0 0-1.588 2.952l-2.696 2.697a1.89 1.89 0 0 0-2.856 1.014l-3.545-.373a1.899 1.899 0 1 0-3.5 1.18l-3.765 3.543a1.937 1.937 0 1 0 .52.556l3.765-3.542a1.888 1.888 0 0 0 2.901-.98l3.544.372a1.9 1.9 0 1 0 3.473-1.232l2.697-2.697a1.904 1.904 0 1 0 1.05-3.49z"/></g><g><path fill="#7835bb" d="M.828 9.902a.38.38 0 0 0 .27-.111l3.158-3.159L6.08 8.458c.15.148.39.148.539 0l3.92-3.92 3.349 3.348a.38.38 0 0 0 .538 0L21.014 1.3v.604a.38.38 0 1 0 .761 0V.381a.378.378 0 0 0-.044-.171.381.381 0 0 0-.053-.08.335.335 0 0 0-.127-.096c-.004 0-.007-.005-.01-.006a.382.382 0 0 0-.133-.026L21.394 0h-1.523a.381.381 0 0 0 0 .762h.604l-6.317 6.317-3.349-3.35a.381.381 0 0 0-.538 0L6.35 7.65 4.525 5.825a.381.381 0 0 0-.538 0L.559 9.252a.382.382 0 0 0 .27.65z"/></g></g></g></svg>