<svg xmlns="http://www.w3.org/2000/svg" width="20" height="19" viewBox="0 0 20 19"><g><g><g><path fill="#fbbb00" d="M4.42 11.575l-.693 2.592-2.538.053A9.93 9.93 0 0 1 0 9.494C0 7.84.402 6.28 1.115 4.907l2.26.414.99 2.246a5.929 5.929 0 0 0-.32 1.927c0 .732.133 1.433.376 2.08z"/></g><g><path fill="#518ef8" d="M19.774 7.163a9.988 9.988 0 0 1-.044 3.946 9.97 9.97 0 0 1-3.512 5.695l-2.846-.146-.403-2.514a5.944 5.944 0 0 0 2.558-3.036h-5.334V7.163h5.412z"/></g><g><path fill="#28b446" d="M16.218 16.804A9.932 9.932 0 0 1 9.974 19a9.973 9.973 0 0 1-8.785-5.247l3.232-2.646a5.93 5.93 0 0 0 8.548 3.037z"/></g><g><path fill="#f14336" d="M16.34 2.296l-3.23 2.646a5.932 5.932 0 0 0-8.744 3.106l-3.25-2.66A9.972 9.972 0 0 1 9.973 0c2.42 0 4.64.862 6.366 2.296z"/></g></g></g></svg>