<svg xmlns="http://www.w3.org/2000/svg" width="19" height="15" viewBox="0 0 19 15"><g><g><g><path fill="#7835bb" d="M15.997 7.393l2.771-2.77a.792.792 0 0 0 0-1.12l-2.77-2.77a.791.791 0 1 0-1.12 1.119l1.42 1.419H.791a.792.792 0 0 0 0 1.583h15.505l-1.42 1.42a.788.788 0 0 0 0 1.12c.31.308.811.308 1.12 0z"/></g><g><path fill="#7835bb" d="M4.122 14.518c.31-.309.31-.81 0-1.12l-1.42-1.419h15.506a.792.792 0 0 0 0-1.583H2.703l1.42-1.42a.792.792 0 1 0-1.12-1.119L.232 10.628a.789.789 0 0 0 0 1.12l2.77 2.77c.31.31.811.31 1.12 0z"/></g></g></g></svg>