<svg xmlns="http://www.w3.org/2000/svg" width="67" height="70" viewBox="0 0 67 70"><g><g><g><g><path fill="#d8d8d8" d="M57.637 44.094V59.9H9.291V44.094H0v20.452a4.645 4.645 0 0 0 4.653 4.644h57.625a4.645 4.645 0 0 0 4.653-4.644V44.094z"/></g><g><path fill="#d8d8d8" d="M32.614 42.527L19.31 26.452s-2.024-1.911.171-1.911h7.497v-3.268V1.14S26.68 0 28.398 0h10.551c1.237 0 1.21.96 1.21.96v23.099h6.92c2.663 0 .657 2 .657 2S36.418 41.086 34.839 42.662c-1.136 1.143-2.225-.134-2.225-.134z"/></g></g></g></g></svg>