<svg xmlns="http://www.w3.org/2000/svg" width="19" height="16" viewBox="0 0 19 16"><g><g><g><g><path fill="#0b9f2e" d="M5.28 10.04l-.466.33c-.198.135-.417.273-.658.415l.372-.895-1.029-.596c-.679-.398-1.205-.867-1.58-1.406-.374-.54-.562-1.101-.562-1.683 0-.725.278-1.403.833-2.035.554-.632 1.302-1.133 2.242-1.502a8.22 8.22 0 0 1 3.032-.554 8.22 8.22 0 0 1 3.033.554c.94.369 1.687.87 2.242 1.502.555.632.833 1.31.833 2.035 0 .724-.278 1.402-.833 2.034-.555.632-1.302 1.133-2.242 1.502-.94.37-1.951.554-3.033.554-.53 0-1.07-.05-1.622-.149zm5.933.889c1.148-.487 2.055-1.149 2.719-1.987.664-.838.997-1.75.997-2.737 0-.988-.333-1.9-.997-2.738-.664-.838-1.57-1.5-2.72-1.987C10.065.993 8.816.75 7.465.75c-1.35 0-2.6.244-3.748.73-1.148.487-2.055 1.149-2.72 1.987C.333 4.305 0 5.217 0 6.205c0 .845.251 1.64.753 2.386.502.746 1.191 1.374 2.067 1.885a5.85 5.85 0 0 1-.217.47 2.701 2.701 0 0 1-.265.41c-.103.13-.182.234-.239.308-.056.075-.148.18-.275.314a7.411 7.411 0 0 0-.244.267c0-.008-.014.009-.043.048-.028.039-.044.056-.047.053-.004-.004-.018.014-.043.053l-.037.059-.026.053a.224.224 0 0 0-.022.064.418.418 0 0 0-.005.069c0 .025.004.048.01.069a.354.354 0 0 0 .123.224.33.33 0 0 0 .217.085h.032a8.85 8.85 0 0 0 .912-.17 8.9 8.9 0 0 0 2.947-1.364c.636.113 1.258.17 1.866.17 1.35 0 2.6-.243 3.748-.729z"/></g><g><path fill="#0b9f2e" d="M18.247 11.323c.502-.743.753-1.54.753-2.392 0-.873-.265-1.69-.795-2.45-.53-.76-1.251-1.392-2.163-1.896a5.485 5.485 0 0 1-.467 4.325c-.473.852-1.152 1.605-2.036 2.258a9.37 9.37 0 0 1-2.799 1.374c-1.046.32-2.138.48-3.276.48-.212 0-.523-.014-.933-.043 1.42.938 3.09 1.406 5.005 1.406.608 0 1.23-.057 1.866-.17a8.898 8.898 0 0 0 2.947 1.364c.255.064.559.12.912.17a.319.319 0 0 0 .233-.074.395.395 0 0 0 .138-.235c-.003-.042 0-.066.01-.07.011-.002.01-.026-.004-.068l-.022-.064-.026-.053a.512.512 0 0 0-.08-.112 1.369 1.369 0 0 1-.047-.053 7.436 7.436 0 0 0-.286-.314 4.208 4.208 0 0 1-.276-.314 32.32 32.32 0 0 0-.238-.31 2.698 2.698 0 0 1-.266-.41 5.885 5.885 0 0 1-.217-.468c.876-.512 1.566-1.139 2.067-1.881z"/></g></g></g></g></svg>