<svg xmlns="http://www.w3.org/2000/svg" width="17" height="21" viewBox="0 0 17 21"><g><g><g><path d="M16.127 4.396H.62v-1.62H16.127zm-1.89 15.984H2.51l-.83-15.363h13.389zM5.158.62h6.433v1.536H5.157zm7.053 1.536V.31A.31.31 0 0 0 11.9 0H4.847a.31.31 0 0 0-.31.31v1.846H.31a.31.31 0 0 0-.31.31v2.24c0 .172.139.31.31.31h.748l.847 15.69a.31.31 0 0 0 .31.294h12.317a.31.31 0 0 0 .31-.293l.846-15.69h.749a.31.31 0 0 0 .31-.31v-2.24a.31.31 0 0 0-.31-.31z"/></g><g><path d="M5.302 16.27a.31.31 0 0 0 .31-.31V8.492a.31.31 0 1 0-.62 0v7.468c0 .171.138.31.31.31z"/></g><g><path d="M8.373 16.27a.31.31 0 0 0 .31-.31V8.492a.31.31 0 0 0-.62 0v7.468c0 .171.14.31.31.31z"/></g><g><path d="M11.445 16.27a.31.31 0 0 0 .31-.31V8.492a.31.31 0 0 0-.62 0v7.468c0 .171.139.31.31.31z"/></g></g></g></svg>
