<svg xmlns="http://www.w3.org/2000/svg" width="23" height="16" viewBox="0 0 23 16"><g><g><g><path fill="currentColor" d="M11.462 14.16c-4.087 0-7.883-2.307-9.778-5.91 1.895-3.604 5.691-5.912 9.778-5.912 4.086 0 7.882 2.308 9.777 5.911-1.895 3.604-5.691 5.912-9.777 5.912zm11.407-6.197a12.655 12.655 0 0 0-4.6-5.223A12.584 12.584 0 0 0 11.462.75c-2.423 0-4.777.688-6.808 1.99A12.656 12.656 0 0 0 .091 7.881a.794.794 0 0 0-.012.713 12.655 12.655 0 0 0 4.575 5.165 12.583 12.583 0 0 0 6.808 1.99c2.423 0 4.777-.688 6.807-1.99a12.655 12.655 0 0 0 4.575-5.165.797.797 0 0 0 .025-.631z"/></g><g><path fill="currentColor" d="M11.462 10.147A1.9 1.9 0 0 1 9.564 8.25a1.9 1.9 0 0 1 1.898-1.897 1.9 1.9 0 0 1 1.897 1.897 1.9 1.9 0 0 1-1.897 1.898zm0-5.384A3.49 3.49 0 0 0 7.975 8.25a3.49 3.49 0 0 0 3.487 3.487 3.49 3.49 0 0 0 3.486-3.487 3.49 3.49 0 0 0-3.486-3.486z"/></g></g></g></svg>
