<svg xmlns="http://www.w3.org/2000/svg" width="21" height="21" viewBox="0 0 21 21"><g><g><g><path fill="#7835bb" d="M20.971 9.31a.37.37 0 0 0-.086-.417l-4.754-4.581a.406.406 0 0 0-.56 0 .372.372 0 0 0 0 .54l4.078 3.93h-8.553c-.22 0-.397.17-.397.382 0 .21.177.381.397.381h8.553l-4.079 3.93a.372.372 0 0 0 0 .54.403.403 0 0 0 .28.112.403.403 0 0 0 .28-.112l4.755-4.581a.383.383 0 0 0 .086-.125z"/></g><g><path fill="#7835bb" d="M8.718 20.096l-7.925-2.43V.904l7.925 2.43zm5.151-9.023c-.219 0-.396.17-.396.382v6.109H9.511V3.054a.383.383 0 0 0-.277-.363L2.95.764h10.524v6.109c0 .21.177.382.396.382.22 0 .396-.171.396-.382V.382A.389.389 0 0 0 13.87 0H.397C.385 0 .373.006.361.007.34.009.32.014.3.019A.393.393 0 0 0 .196.06C.186.066.173.066.163.073l-.032.03C.124.109.117.114.11.12a.397.397 0 0 0-.074.104L.03.248A.369.369 0 0 0 0 .382v17.563c0 .048.011.093.028.136.006.014.014.026.021.04a.367.367 0 0 0 .165.158c.015.008.028.016.044.022.007.002.012.006.019.009l8.717 2.672a.407.407 0 0 0 .353-.056.377.377 0 0 0 .163-.308v-2.29h4.358c.22 0 .396-.171.396-.383v-6.49a.39.39 0 0 0-.396-.382z"/></g></g></g></svg>