<svg xmlns="http://www.w3.org/2000/svg" width="21" height="21" viewBox="0 0 21 21"><g><g><g><g><g><path fill="#7835bb" d="M20.3 19.755zm-9.163-7.116a1.039 1.039 0 0 0-1.276 0L.698 19.755V8.583l5.736 4.454a.35.35 0 1 0 .429-.554L1.036 7.96l2.462-1.914V8.75a.35.35 0 0 0 .7 0v-6.3a.35.35 0 0 1 .35-.35H16.45a.35.35 0 0 1 .35.35v6.3a.35.35 0 1 0 .7 0V6.045l2.462 1.914-5.837 4.533a.35.35 0 1 0 .43.553l5.745-4.462v11.172zm-10 7.662l9.152-7.11a.336.336 0 0 1 .417 0l9.155 7.11zM10.288.772a.336.336 0 0 1 .417 0l.808.627h-2.03zM20.995 8.03a.33.33 0 0 0-.014-.071.35.35 0 0 0-.02-.06.313.313 0 0 0-.035-.054.33.33 0 0 0-.047-.054c-.005-.005-.008-.012-.014-.017L17.5 5.16v-2.71c0-.58-.47-1.05-1.05-1.05h-3.793L11.137.22a1.038 1.038 0 0 0-1.276 0L8.34 1.4H4.548c-.58 0-1.05.47-1.05 1.05v2.709L.133 7.773c-.006.005-.008.012-.014.017a.329.329 0 0 0-.047.054.312.312 0 0 0-.034.054.345.345 0 0 0-.02.06.332.332 0 0 0-.015.07c0 .007-.004.013-.004.02v11.903c0 .222.073.439.205.617.003.003.003.007.005.01l.012.01c.196.259.502.411.827.413h18.901c.327-.001.634-.155.83-.415.003-.003.008-.004.01-.008l.005-.01c.133-.178.205-.395.205-.617V8.05c0-.008-.003-.014-.004-.021z"/></g><g><path fill="#7835bb" d="M14.699 8.4V7a4.2 4.2 0 1 0-4.2 4.2.35.35 0 1 0 0-.7 3.5 3.5 0 1 1 3.5-3.5v1.4a.7.7 0 1 1-1.4 0V7a.35.35 0 1 0-.7 0 1.4 1.4 0 1 1-1.4-1.4.35.35 0 1 0 0-.7 2.1 2.1 0 1 0 1.415 3.647 1.396 1.396 0 0 0 2.785-.147z"/></g></g></g></g></g></svg>