<svg xmlns="http://www.w3.org/2000/svg" width="21" height="21" viewBox="0 0 21 21"><g><g><g><g><g><path fill="#7835bb" d="M20.234 17.507l-1.067 1.777c-.235.403-.618.7-1.067.827-2.153.592-6.762.952-12.454-4.74C-.047 9.679.31 5.067.902 2.914c.128-.45.425-.833.829-1.07L3.508.78A.535.535 0 0 1 4.23.94l1.54 2.312L7.063 5.19a.539.539 0 0 1-.117.721L5.354 7.15a1.225 1.225 0 0 0-.324 1.572l.126.23c.448.82 1.004 1.84 3.034 3.87 2.03 2.03 3.05 2.586 3.87 3.034l.23.126c.532.299 1.202.16 1.572-.324l1.238-1.591a.539.539 0 0 1 .721-.117l4.25 2.835c.24.158.31.476.163.722zm.229-1.306l-4.251-2.835a1.24 1.24 0 0 0-1.661.27l-1.239 1.592a.53.53 0 0 1-.678.143l-.236-.13c-.78-.425-1.752-.955-3.71-2.913-1.957-1.958-2.488-2.93-2.913-3.71l-.13-.236a.53.53 0 0 1 .14-.68l1.591-1.238a1.241 1.241 0 0 0 .27-1.662L4.813.552A1.234 1.234 0 0 0 3.148.176L1.371 1.245c-.559.328-.969.86-1.144 1.484C-.413 5.06-.779 9.936 5.15 15.866 9.867 20.582 14.226 21 16.64 21a6.2 6.2 0 0 0 1.644-.215 2.505 2.505 0 0 0 1.484-1.143l1.069-1.776a1.234 1.234 0 0 0-.374-1.665z"/></g><g><path fill="#7835bb" d="M11.913 3.502a5.956 5.956 0 0 1 5.95 5.95.35.35 0 1 0 .7 0 6.657 6.657 0 0 0-6.65-6.65.35.35 0 1 0 0 .7z"/></g><g><path fill="#7835bb" d="M11.913 5.601a3.854 3.854 0 0 1 3.85 3.85.35.35 0 1 0 .7 0 4.555 4.555 0 0 0-4.55-4.55.35.35 0 1 0 0 .7z"/></g><g><path fill="#7835bb" d="M11.913 7.701a1.752 1.752 0 0 1 1.75 1.75.35.35 0 1 0 .7 0 2.453 2.453 0 0 0-2.45-2.45.35.35 0 1 0 0 .7z"/></g></g></g></g></g></svg>