<svg xmlns="http://www.w3.org/2000/svg" width="12" height="15" viewBox="0 0 12 15"><g><g><g><path d="M5.442 2.37L3.255.184a.625.625 0 0 0-.884 0L.183 2.371a.625.625 0 1 0 .884.883l1.12-1.12v12.241a.625.625 0 0 0 1.25 0V2.134l1.121 1.12a.622.622 0 0 0 .884 0 .625.625 0 0 0 0-.883z"/></g><g><path d="M11.067 11.746a.625.625 0 0 0-.884 0l-1.12 1.12V.625a.625.625 0 0 0-1.25 0v12.241l-1.121-1.12a.625.625 0 1 0-.884.883l2.188 2.188a.622.622 0 0 0 .884 0l2.187-2.188a.625.625 0 0 0 0-.883z"/></g></g></g></svg>