<svg xmlns="http://www.w3.org/2000/svg" width="20" height="21" viewBox="0 0 20 21"><g><g><g><path fill="#0b9f2e" d="M11.25 6.429V2.143h2.5v4.286z"/></g><g><path fill="#0b9f2e" d="M16.25 20.143H3.333v-9H16.25zM4.167.857H15v6.857H4.167zM16.422 0H0v21h20V3.68z"/></g><g><path fill="#0b9f2e" d="M5.417 13.714h2.916c.23 0 .417-.191.417-.428a.422.422 0 0 0-.417-.429H5.417a.422.422 0 0 0-.417.429c0 .237.186.428.417.428z"/></g><g><path fill="#0b9f2e" d="M5.417 15.429h4.166c.23 0 .417-.192.417-.429a.422.422 0 0 0-.417-.429H5.417A.422.422 0 0 0 5 15c0 .237.186.429.417.429z"/></g><g><path fill="#0b9f2e" d="M10.833 15.429a.424.424 0 0 0 .296-.125.457.457 0 0 0 .121-.304.457.457 0 0 0-.12-.304.422.422 0 0 0-.588 0 .433.433 0 0 0-.125.304c0 .116.045.223.12.304a.423.423 0 0 0 .296.125z"/></g></g></g></svg>