<svg xmlns="http://www.w3.org/2000/svg" width="20" height="19" viewBox="0 0 20 19"><g><g><g><g/></g><g><g><g><path fill="#7835bb" d="M17.56 15.557l-6.167-2.811 6.96-10.38zm-7.114-3.243l-1.094-.499 5.384-5.898-.779 1.161zm-2.343 3.494l.756-3.102 1.014.462zm-1.099.145l-.8-4.69 8.152-6.448-6.239 6.834a.507.507 0 0 0-.117.22zM18.765.047L8.82 4.57a.5.5 0 0 0-.25.672c.12.253.427.362.686.244l6.135-2.79-2.982 2.36-6.845 5.413-3.744-1.6 5.246-2.387a.5.5 0 0 0 .25-.671.522.522 0 0 0-.686-.245L.983 8.135a.815.815 0 0 0-.482.758.817.817 0 0 0 .5.728l4.18 1.787 1.224 7.177c.075.444.69.57.943.194l3.472-5.18 6.568 2.995c.526.24 1.152-.126 1.186-.69L19.5.533a.49.49 0 0 0 0-.043c-.01-.358-.403-.594-.735-.444z"/></g></g></g></g></g></svg>