<svg xmlns="http://www.w3.org/2000/svg" width="17" height="21" viewBox="0 0 17 21">
  <g id="delete" transform="translate(-15.75 -4.75)">
    <path id="Path_495" data-name="Path 495" d="M33.435,6.906h-4.29V5.06a.312.312,0,0,0-.315-.31H21.67a.313.313,0,0,0-.315.31V6.906h-4.29a.312.312,0,0,0-.315.31v2.24a.313.313,0,0,0,.315.31h.76l.86,15.69A.313.313,0,0,0,19,25.75H31.5a.313.313,0,0,0,.314-.293l.86-15.69h.76a.312.312,0,0,0,.315-.31V7.216A.308.308,0,0,0,33.658,7,.317.317,0,0,0,33.435,6.906ZM21.985,5.37h6.53V6.906h-6.53ZM31.2,25.13H19.3L18.455,9.767h13.59ZM33.12,9.146H17.38V7.526H33.12Z" transform="translate(-1 0)" fill="#fe5555"/>
    <path id="Path_496" data-name="Path 496" d="M45.232,59.005a.313.313,0,0,0,.315-.31V51.227a.315.315,0,0,0-.63,0V58.7a.313.313,0,0,0,.315.31Z" transform="translate(-24.1 -37.986)" fill="#fe5555"/>
    <path id="Path_497" data-name="Path 497" d="M62.565,59.005a.313.313,0,0,0,.315-.31V51.227a.315.315,0,0,0-.63,0V58.7A.313.313,0,0,0,62.565,59.005Z" transform="translate(-38.315 -37.986)" fill="#fe5555"/>
    <path id="Path_498" data-name="Path 498" d="M79.9,59.005a.312.312,0,0,0,.315-.31V51.227a.315.315,0,0,0-.63,0V58.7A.313.313,0,0,0,79.9,59.005Z" transform="translate(-52.53 -37.986)" fill="#fe5555"/>
  </g>
</svg>
