<svg xmlns="http://www.w3.org/2000/svg" width="21" height="19" viewBox="0 0 21 19"><g><g><g><path fill="#62259f" d="M5.146 14.453a.925.925 0 0 1-.726.346.924.924 0 0 1-.92-.814.902.902 0 0 1 .195-.67.926.926 0 0 1 .726-.346.924.924 0 0 1 .92.814.9.9 0 0 1-.195.67zm.334-1.891a1.716 1.716 0 0 0-1.06-.368c-.52 0-1.004.231-1.329.634a1.672 1.672 0 0 0-.362 1.244c.051.45.276.853.632 1.134.3.238.676.368 1.06.368a1.697 1.697 0 0 0 1.69-1.877 1.677 1.677 0 0 0-.63-1.135z"/></g><g><path fill="#62259f" d="M11.418 6.602a.929.929 0 0 1 .874-.616c.355 0 .684.204.837.52a.912.912 0 0 1-.43 1.219.936.936 0 0 1-1.24-.43.898.898 0 0 1-.04-.693zm.879 1.99A1.696 1.696 0 0 0 13.9 7.455a1.669 1.669 0 0 0-.075-1.289 1.712 1.712 0 0 0-2.27-.79 1.68 1.68 0 0 0-.794 2.258c.283.58.885.956 1.535.956z"/></g><g><path fill="#62259f" d="M7.553 4.002a.917.917 0 0 1 1.11-.689.92.92 0 0 1 .697 1.094.93.93 0 0 1-1.691.28.899.899 0 0 1-.116-.685zm.525 1.85c.125.028.252.042.38.042.797 0 1.48-.54 1.658-1.313a1.69 1.69 0 0 0-1.662-2.067 1.689 1.689 0 0 0-.376 3.338z"/></g><g><path fill="#62259f" d="M3.213 6.066a.905.905 0 0 1 .146-1.284.925.925 0 0 1 .578-.2c.285 0 .55.126.726.345a.909.909 0 0 1-.147 1.284.92.92 0 0 1-.576.2.927.927 0 0 1-.727-.345zm1.785.753c.356-.282.58-.686.63-1.136.051-.448-.077-.89-.36-1.242a1.7 1.7 0 0 0-1.331-.635c-.383 0-.759.13-1.059.368-.356.28-.58.684-.631 1.133-.05.45.078.891.362 1.245a1.71 1.71 0 0 0 2.389.267z"/></g><g><path fill="#62259f" d="M17.336 7.375a102.578 102.578 0 0 1-4.927 5.45l-.237-.24-1.046-1.054a102 102 0 0 1 5.406-4.967c1.929-1.645 2.94-2.36 3.455-2.672-.308.518-1.017 1.537-2.65 3.483zm-5.353 6.122c-.41 1.628-1.444 2.453-3.075 2.453-.43 0-.842-.059-1.188-.132.414-.422.543-1.056.655-1.606.213-1.047.414-2.038 2.062-2.274zm1.185 2.06a8.715 8.715 0 0 1-6.176 2.534h-.003c-2.5 0-6.21-1.738-6.211-4.137 0-1.273.669-1.77 1.377-2.294.663-.492 1.414-1.048 1.413-2.228 0-1.179-.751-1.736-1.414-2.227C1.445 6.679.776 6.182.775 4.909c0-1.473 1.355-2.49 2.162-2.965C4.145 1.234 5.733.775 6.983.775h.001a8.72 8.72 0 0 1 5.236 1.728 8.75 8.75 0 0 1 3.036 4.138 102.693 102.693 0 0 0-4.858 4.521c-2.252.292-2.559 1.793-2.783 2.895-.191.94-.315 1.393-1.04 1.451a.388.388 0 0 0-.117.745c.047.019 1.155.472 2.45.472.903 0 1.677-.219 2.301-.65.77-.532 1.291-1.375 1.553-2.505a92.563 92.563 0 0 0 2.9-3.09 8.556 8.556 0 0 1-2.494 5.076zm7.684-12.532a.512.512 0 0 0-.375-.148c-.222 0-.809 0-4.377 3.036a69.45 69.45 0 0 0-.217.185 9.543 9.543 0 0 0-3.2-4.217A9.49 9.49 0 0 0 6.984 0h-.001c-1.4 0-3.1.488-4.439 1.275C.904 2.241 0 3.531 0 4.91c0 1.664.939 2.36 1.693 2.918.614.456 1.1.816 1.1 1.606 0 .789-.485 1.148-1.1 1.604-.753.558-1.691 1.254-1.69 2.918 0 1.377.904 2.668 2.545 3.633 1.34.788 3.042 1.278 4.44 1.279h.004c2.539 0 4.926-.98 6.722-2.76a9.325 9.325 0 0 0 2.784-6.568 94.317 94.317 0 0 0 1.717-2.008c.91-1.097 1.611-2.002 2.082-2.69.623-.913.896-1.472.555-1.816z"/></g></g></g></svg>