<svg xmlns="http://www.w3.org/2000/svg" width="20" height="19" viewBox="0 0 20 19"><g><g><g><g/></g><g><g><g><path fill="#7835bb" d="M18.535 14.989a3.05 3.05 0 0 1-3.046 3.046H4.512a3.05 3.05 0 0 1-3.046-3.046V4.013A3.05 3.05 0 0 1 4.512.967H15.49a3.05 3.05 0 0 1 3.046 3.046v10.976zM4.512 0A4.017 4.017 0 0 0 .5 4.013v10.976c0 2.212 1.8 4.012 4.012 4.012H15.49c2.212 0 4.012-1.8 4.012-4.012V4.013c0-2.212-1.8-4.012-4.012-4.012z"/></g></g></g><g><g><g><path fill="#7835bb" d="M14.984 9.215a5.005 5.005 0 0 0-4.754-4.7 4.997 4.997 0 0 0-5.216 5.219 5.005 5.005 0 0 0 4.705 4.75 4.963 4.963 0 0 0 2.916-.746.479.479 0 0 0 .086-.744l-.007-.007a.481.481 0 0 0-.596-.064 4 4 0 0 1-2.16.603c-2.238-.023-4.044-1.903-3.981-4.14a4.03 4.03 0 0 1 4.282-3.902 4.036 4.036 0 0 1 3.753 3.679 4.005 4.005 0 0 1-.454 2.22.48.48 0 0 0 .08.567l.008.007a.477.477 0 0 0 .758-.108 4.961 4.961 0 0 0 .58-2.634z"/></g></g></g><g><g><g><path fill="#7835bb" d="M14.297 3.219a1.288 1.288 0 1 1 2.576 0 1.288 1.288 0 0 1-2.576 0z"/></g></g></g></g></g></svg>