<svg xmlns="http://www.w3.org/2000/svg" width="21" height="21" viewBox="0 0 21 21"><g><g><g><g><g><g><g><path fill="#7835bb" d="M11.938 9.959c.088.172.299.24.471.153.02-.01 2.08-1.056 3.097-1.379a.35.35 0 0 0-.212-.667c-1.07.34-3.116 1.38-3.203 1.422a.35.35 0 0 0-.153.471z"/></g></g><g><g><path fill="#7835bb" d="M12.25 5.95a.35.35 0 0 0 .16-.038c.02-.01 2.08-1.057 3.096-1.379a.35.35 0 0 0-.212-.667c-1.07.338-3.116 1.378-3.203 1.423a.35.35 0 0 0 .16.661z"/></g></g><g><g><path fill="#7835bb" d="M20.65 5.25a.35.35 0 0 0-.35.35v13.65c0 .579-.471 1.05-1.05 1.05h-8.4v-.805c.51-.179 1.84-.595 3.15-.595 3.048 0 5.12.675 5.14.682a.352.352 0 0 0 .46-.331V3.85a.35.35 0 0 0-.274-.343s-.274-.061-.744-.147a.35.35 0 0 0-.127.689l.445.084v14.65c-.793-.207-2.555-.583-4.9-.583-1.524 0-3.023.5-3.486.67a8.2 8.2 0 0 0-3.164-.67c-2.41 0-4.397.397-5.25.6V4.12a23.037 23.037 0 0 1 5.25-.62c1.277 0 2.371.396 2.8.575V17.85a.35.35 0 0 0 .53.3c.035-.02 3.503-2.091 6.58-3.118a.35.35 0 0 0 .24-.332V.35a.35.35 0 0 0-.473-.328c-2.8 1.05-5.634 2.814-5.662 2.83a.35.35 0 0 0 .37.595c.026-.017 2.492-1.55 5.065-2.585v13.587c-2.389.831-4.883 2.187-5.95 2.793V3.851a.35.35 0 0 0-.194-.314A8.105 8.105 0 0 0 7.35 2.8c-3.162 0-5.595.684-5.696.713a.35.35 0 0 0-.254.337v15.4a.351.351 0 0 0 .445.336c.025-.007 2.445-.687 5.506-.687 1.279 0 2.372.398 2.8.578v.823H1.75C1.17 20.3.7 19.83.7 19.25V5.6a.35.35 0 0 0-.7 0v13.65C0 20.215.785 21 1.75 21h17.5c.965 0 1.75-.786 1.75-1.75V5.6a.35.35 0 0 0-.35-.351z"/></g></g><g><g><path fill="#7835bb" d="M11.938 7.86c.088.17.299.239.471.151.02-.01 2.08-1.056 3.097-1.377a.35.35 0 0 0-.212-.667c-1.07.337-3.116 1.377-3.203 1.422a.35.35 0 0 0-.153.47z"/></g></g><g><g><path fill="#7835bb" d="M11.938 12.059c.088.172.299.24.471.153.02-.01 2.08-1.056 3.097-1.379a.35.35 0 0 0-.212-.667c-1.07.339-3.116 1.379-3.203 1.422a.35.35 0 0 0-.153.47z"/></g></g><g><g><path fill="#7835bb" d="M8.48 6.495c-2.161-.507-4.617.14-4.72.167a.35.35 0 0 0 .18.677c.024-.007 2.389-.629 4.38-.162a.35.35 0 1 0 .16-.682z"/></g></g><g><g><path fill="#7835bb" d="M8.48 8.595c-2.161-.507-4.617.14-4.72.167a.35.35 0 0 0 .18.676c.024-.006 2.389-.628 4.38-.16a.35.35 0 1 0 .16-.683z"/></g></g><g><g><path fill="#7835bb" d="M11.938 14.159c.088.172.299.24.471.153.02-.01 2.08-1.056 3.097-1.379a.35.35 0 0 0-.212-.667c-1.07.339-3.116 1.379-3.203 1.422a.35.35 0 0 0-.153.47z"/></g></g><g><g><path fill="#7835bb" d="M8.48 10.695c-2.161-.507-4.617.14-4.72.167a.35.35 0 0 0 .18.676c.024-.006 2.389-.628 4.38-.16a.35.35 0 1 0 .16-.683z"/></g></g><g><g><path fill="#7835bb" d="M8.48 14.895c-2.161-.507-4.617.14-4.72.167a.35.35 0 0 0 .18.676c.024-.007 2.389-.628 4.38-.161a.35.35 0 0 0 .16-.682z"/></g></g><g><g><path fill="#7835bb" d="M8.48 12.795c-2.161-.507-4.617.14-4.72.167a.35.35 0 0 0 .18.676c.024-.006 2.389-.628 4.38-.161a.35.35 0 1 0 .16-.682z"/></g></g></g></g></g></g></g></svg>