<svg xmlns="http://www.w3.org/2000/svg" width="19" height="19" viewBox="0 0 19 19"><g><g><g><g><path fill="#7835bb" d="M1.12 9.496c0-4.622 3.745-8.383 8.347-8.383 4.643 0 8.421 3.76 8.421 8.383 0 4.623-3.778 8.384-8.42 8.384a8.317 8.317 0 0 1-4.49-1.309l-.214-.137-3.117.92.92-3.117-.137-.214a8.382 8.382 0 0 1-1.31-4.526zm3.476 8.148a9.43 9.43 0 0 0 4.871 1.35c5.226 0 9.534-4.265 9.534-9.497C19.001 4.27 14.699 0 9.467 0 4.251 0 .007 4.26.007 9.497c0 1.747.467 3.438 1.35 4.908L0 19z"/></g><g><path fill="#7835bb" d="M5.963 5.013c.464-.453.44-.462.49-.462.018 0 .036.007.05.02C8.363 6.444 8.29 6.334 8.29 6.387a.067.067 0 0 1-.02.049l-.442.441a1.805 1.805 0 0 0-.005 2.55l1.764 1.838.008.009c.704.703 1.923.706 2.629 0l.442-.442a.069.069 0 0 1 .097 0c1.862 1.872 1.787 1.762 1.787 1.816a.067.067 0 0 1-.02.048l-.442.442c-.303.303-1.267.484-2.525.244-.84-.16-2.454-.634-3.832-2.012C6.353 9.993 5.879 8.378 5.719 7.54c-.24-1.259-.058-2.223.244-2.526zM4.626 7.747c.184.965.73 2.822 2.318 4.41 1.588 1.589 3.445 2.135 4.41 2.318 1.106.21 2.728.243 3.521-.55l.442-.442c.223-.223.346-.52.346-.836 0-.315-.123-.612-.346-.835l-1.768-1.767a1.173 1.173 0 0 0-.835-.346c-.315 0-.612.123-.835.346l-.442.442c-.27.27-.78.27-1.052.003L8.623 8.653l-.008-.008a.694.694 0 0 1 0-.98l.441-.443a1.18 1.18 0 0 0 0-1.67L7.29 3.784c-.46-.46-1.21-.46-1.67 0l-.443.442c-.632.633-.843 1.982-.55 3.52z"/></g></g></g></g></svg>