<svg xmlns="http://www.w3.org/2000/svg" width="15" height="16" viewBox="0 0 15 16"><g><g><g><path fill="#7835bb" d="M11.074 3.416c.575 0 1.04-.463 1.04-1.039V1.29c0-.576-.464-1.04-1.04-1.04-.575 0-1.04.464-1.04 1.04v1.088c.001.575.466 1.038 1.04 1.038z"/></g><g><path fill="#7835bb" d="M1.058 14.197v-8.45H13.73v8.45zM14.77 2.05h-2.095v.529a1.584 1.584 0 0 1-3.167 0v-.53H5.283v.53a1.586 1.586 0 0 1-3.168 0v-.53L0 2.024V15.25h13.73l1.056-.003z"/></g><g><path fill="#7835bb" d="M3.682 3.416c.575 0 1.04-.463 1.04-1.039V1.29a1.04 1.04 0 1 0-2.08 0v1.088c0 .575.464 1.038 1.04 1.038z"/></g><g><path fill="#7835bb" d="M5.286 8.35V6.88H6.95v1.47z"/></g><g><path fill="#7835bb" d="M7.977 8.35V6.88h1.665v1.47z"/></g><g><path fill="#7835bb" d="M10.472 8.35V6.88h1.665v1.47z"/></g><g><path fill="#7835bb" d="M5.286 10.788V9.32H6.95v1.468z"/></g><g><path fill="#7835bb" d="M7.977 10.788V9.32h1.665v1.468z"/></g><g><path fill="#7835bb" d="M10.472 10.788V9.32h1.665v1.468z"/></g><g><path fill="#7835bb" d="M5.286 13.276v-1.468H6.95v1.468z"/></g><g><path fill="#7835bb" d="M2.642 10.788V9.32h1.664v1.468z"/></g><g><path fill="#7835bb" d="M2.642 13.276v-1.468h1.664v1.468z"/></g><g><path fill="#7835bb" d="M7.977 13.276v-1.468h1.665v1.468z"/></g><g><path fill="#7835bb" d="M10.472 13.276v-1.468h1.665v1.468z"/></g></g></g></svg>