<svg xmlns="http://www.w3.org/2000/svg" width="22" height="21" viewBox="0 0 22 21"><g><g><g><g><path fill="#62259f" d="M5.907 13.367a.433.433 0 1 0-.432-.75.433.433 0 1 0 .433.75z"/></g></g><g><g><path fill="#62259f" d="M4.134 16.356a3.033 3.033 0 0 1-2.641-5.44l3.678-2.123 5.656-7.206a1.29 1.29 0 0 1 1.094-.6h.017c.46.004.881.252 1.109.65l1.597 2.767 1.666-.1c.164-.01.32.074.402.216l.865 1.5a.433.433 0 0 1-.014.455l-.92 1.393 1.44 2.493a1.3 1.3 0 0 1-1.053 1.947l-8.295 1.627.563.975a.433.433 0 0 1-.158.59l-1.125.651 1.3 2.25a1.732 1.732 0 1 1-3 1.732l-2.181-3.776zm2.265-1.272l-1.5.865L7.065 19.7a.866.866 0 0 0 1.5-.865zm1.934-.116l-.434-.75-.75.433.433.75zm6.796-9.725l1.03 1.786.535-.807-.599-1.036zm-3.577-3.182c-.022.036-.036.05-.15.194l5.33 9.228c.15-.028.178-.04.237-.04a.433.433 0 0 0 .365-.649L12.296 2.07a.423.423 0 0 0-.368-.216.423.423 0 0 0-.376.21zm-5.57 7.102l2.296 3.979 7.555-1.482-5.006-8.67zm-4.848 5.46a2.168 2.168 0 0 0 2.957.794l3.376-1.949L5.3 9.718l-3.375 1.948a2.162 2.162 0 0 0-.792 2.958z"/></g></g><g><g><path fill="#62259f" d="M4.566 13.64a.433.433 0 0 0-.59-.157l-.752.434a.434.434 0 0 1-.59-.159.433.433 0 0 0-.751.432 1.3 1.3 0 0 0 1.775.476l.75-.432a.433.433 0 0 0 .158-.592z"/></g></g><g><g><path fill="#62259f" d="M21.505 1.913l-2.413 1.343a.433.433 0 0 0 .422.757l2.412-1.343a.433.433 0 0 0-.42-.756z"/></g></g><g><g><path fill="#62259f" d="M21.252 6.399l-1.673-.449a.433.433 0 1 0-.224.836l1.673.449a.433.433 0 1 0 .224-.836z"/></g></g><g><g><path fill="#62259f" d="M17.048.34l-.449 1.674a.433.433 0 0 0 .836.223l.449-1.672a.433.433 0 1 0-.836-.224z"/></g></g></g></g></svg>