<svg xmlns="http://www.w3.org/2000/svg" width="21" height="21" viewBox="0 0 21 21"><g><g><g><path fill="#7835bb" d="M18.428 3.993l-1.12.173 1.275-1.275 1.12-.173zm-1.421-1.422l1.275-1.275-.173 1.12-1.275 1.276zm3.957-.492a.335.335 0 0 0-.35-.18l-1.79.276L19.1.386a.335.335 0 0 0-.568-.288l-2.077 2.077a.335.335 0 0 0-.094.186l-.329 2.133-1.189 1.189a8.775 8.775 0 0 0-6.007-2.355 8.779 8.779 0 0 0-6.25 2.587A8.779 8.779 0 0 0 0 12.165a8.78 8.78 0 0 0 2.587 6.248A8.78 8.78 0 0 0 8.836 21a8.78 8.78 0 0 0 6.25-2.587 8.78 8.78 0 0 0 2.586-6.249c0-1.879-.581-3.672-1.68-5.186a.335.335 0 1 0-.542.393 8.11 8.11 0 0 1 1.551 4.793c0 4.503-3.663 8.166-8.165 8.166-4.503 0-8.166-3.663-8.166-8.166 0-4.502 3.663-8.166 8.166-8.166 2.07 0 4.022.765 5.533 2.159l-1.532 1.532a5.968 5.968 0 0 0-4.001-1.527 6.01 6.01 0 0 0-6.002 6.002 6.01 6.01 0 0 0 6.002 6.002 6.01 6.01 0 0 0 6.002-6.002 5.996 5.996 0 0 0-.873-3.121.335.335 0 1 0-.573.348 5.338 5.338 0 0 1-4.557 8.105 5.338 5.338 0 0 1-5.331-5.332 5.338 5.338 0 0 1 5.332-5.332c1.31 0 2.552.471 3.527 1.331L10.827 9.7a3.172 3.172 0 0 0-5.16 2.465 3.172 3.172 0 0 0 3.169 3.169 3.172 3.172 0 0 0 3.035-4.083.335.335 0 1 0-.642.193 2.501 2.501 0 0 1-2.393 3.22 2.501 2.501 0 0 1-2.499-2.499 2.501 2.501 0 0 1 4.013-1.988l-1.751 1.751a.335.335 0 0 0 .474.474l6.011-6.011 1.422-1.422 2.133-.329a.335.335 0 0 0 .186-.094l2.077-2.077a.335.335 0 0 0 .062-.389z"/></g></g></g></svg>