<svg xmlns="http://www.w3.org/2000/svg" width="21" height="18" viewBox="0 0 21 18"><g><g><g><g><g><path fill="#62259f" d="M20.18 14.522a.606.606 0 0 1-.606.605H17.16a7.426 7.426 0 0 0 2.36-5.433 7.426 7.426 0 0 0-2.36-5.433h2.415c.334 0 .606.272.606.606zm-4.319.605a6.61 6.61 0 0 1-5.975.82 6.612 6.612 0 0 1-1.599-.82A6.622 6.622 0 0 1 5.45 9.694a6.622 6.622 0 0 1 2.838-5.433 6.611 6.611 0 0 1 5.975-.82c.573.201 1.11.478 1.599.82a6.622 6.622 0 0 1 2.838 5.433 6.622 6.622 0 0 1-2.838 5.433zm-12.567 0v-4.455a.41.41 0 1 0-.82 0v4.455H1.425a.606.606 0 0 1-.606-.605V4.867c0-.334.272-.606.606-.606h5.563a7.426 7.426 0 0 0-2.36 5.433c0 2.141.908 4.074 2.36 5.433zM2.307 2.59a.05.05 0 0 1 .05-.05h2.812a.05.05 0 0 1 .05.05v.851H2.307zm5.43-.966A1.02 1.02 0 0 1 8.74.819h6.67c.485 0 .897.331 1.002.805l.402 1.817h-.702a7.402 7.402 0 0 0-4.037-1.192A7.402 7.402 0 0 0 8.037 3.44h-.702zm9.916 1.817l-.441-1.995A1.835 1.835 0 0 0 15.409 0H8.74c-.873 0-1.614.595-1.802 1.447l-.442 1.995H6.04V2.59a.87.87 0 0 0-.87-.87H2.357a.87.87 0 0 0-.87.87v.851h-.061C.64 3.441 0 4.081 0 4.867v9.655c0 .786.64 1.426 1.426 1.426h6.611a7.402 7.402 0 0 0 4.037 1.192 7.401 7.401 0 0 0 4.037-1.192h3.463c.786 0 1.426-.64 1.426-1.426V4.867c0-.787-.64-1.426-1.426-1.426z"/></g></g></g><g><g><g><path fill="#62259f" d="M12.074 4.31a5.391 5.391 0 0 0-5.385 5.384 5.391 5.391 0 0 0 6.665 5.232.41.41 0 0 0-.194-.797 4.57 4.57 0 0 1-5.65-4.435 4.57 4.57 0 0 1 4.564-4.564 4.57 4.57 0 0 1 4.565 4.564 4.54 4.54 0 0 1-.784 2.558.41.41 0 0 0 .68.46 5.358 5.358 0 0 0 .924-3.018 5.391 5.391 0 0 0-5.385-5.385z"/></g></g></g><g><g><g><path fill="#62259f" d="M2.884 7.913a.708.708 0 1 1 .001-1.415.708.708 0 0 1-.001 1.415zm0-2.234c-.843 0-1.528.685-1.528 1.527 0 .842.686 1.527 1.528 1.527S4.41 8.048 4.41 7.206c0-.842-.685-1.527-1.527-1.527z"/></g></g></g><g><g><g><path fill="#62259f" d="M15.385 13.65a.437.437 0 0 0-.062-.147.391.391 0 0 0-.184-.151.415.415 0 0 0-.313 0 .437.437 0 0 0-.134.088.393.393 0 0 0-.088.133.436.436 0 0 0-.032.158.406.406 0 0 0 .12.29.43.43 0 0 0 .21.111.408.408 0 0 0 .483-.482z"/></g></g></g></g></g></svg>