<svg xmlns="http://www.w3.org/2000/svg" width="13" height="7" viewBox="0 0 13 7">
  <g id="Group_701" data-name="Group 701" transform="translate(-130 -7)">
    <g id="down-arrow" transform="translate(130 7)">
      <path id="Path_51" data-name="Path 51" d="M19.267,33.535a.457.457,0,0,0-.65,0L12.906,39.3l-5.722-5.76a.457.457,0,0,0-.65,0,.465.465,0,0,0,0,.654l6.036,6.076a.447.447,0,0,0,.325.135.466.466,0,0,0,.325-.135l6.036-6.076A.455.455,0,0,0,19.267,33.535Z" transform="translate(-6.4 -33.4)" fill="#0a0a0a"/>
    </g>
  </g>
</svg>
