<svg xmlns="http://www.w3.org/2000/svg" width="21" height="21" viewBox="0 0 21 21"><g><g><path fill="#7835bb" d="M18.312 16.619a11.415 11.415 0 0 0-2.656-1.233c.427-1.496.652-3.043.668-4.598h4.098a9.87 9.87 0 0 1-2.11 5.83zm-5.532 3.543c1.127-.867 2.074-2.357 2.704-4.23.863.273 1.689.654 2.458 1.133a9.943 9.943 0 0 1-5.162 3.097zm-9.72-3.099c.77-.477 1.596-.857 2.458-1.132.63 1.874 1.577 3.364 2.704 4.231a9.929 9.929 0 0 1-5.161-3.099zm1.618-6.275c.016 1.555.241 3.101.668 4.597v.001A11.35 11.35 0 0 0 2.69 16.62a9.875 9.875 0 0 1-2.11-5.832zM2.69 4.38zm2.656 1.235a17.403 17.403 0 0 0-.668 4.597H.58a9.875 9.875 0 0 1 2.11-5.832c.828.524 1.721.939 2.656 1.235zM8.222.838c-1.127.868-2.074 2.358-2.704 4.232a10.998 10.998 0 0 1-2.457-1.132 9.928 9.928 0 0 1 5.161-3.1zm9.72 3.098c-.77.479-1.595.86-2.458 1.134-.63-1.874-1.577-3.364-2.704-4.232a9.943 9.943 0 0 1 5.162 3.098zm-7.154 6.277v-3.82a16.953 16.953 0 0 0 4.33-.614c.404 1.444.616 2.935.632 4.434zm0 4.394v-3.82h4.962c-.016 1.5-.228 2.991-.632 4.435a16.954 16.954 0 0 0-4.33-.615zm0 .574c1.406.018 2.805.215 4.16.588-.88 2.651-2.406 4.462-4.16 4.643zm-.574 0v5.23c-1.754-.18-3.28-1.991-4.16-4.642a16.507 16.507 0 0 1 4.16-.588zm0-4.393v3.819a17.09 17.09 0 0 0-4.33.614 17.129 17.129 0 0 1-.632-4.433zm0-.575H5.252a17.13 17.13 0 0 1 .632-4.433 17.09 17.09 0 0 0 4.33.614zm0-4.393a16.507 16.507 0 0 1-4.16-.588C6.933 2.581 8.46.77 10.213.59zm.574-5.231c1.754.18 3.28 1.992 4.16 4.643-1.355.372-2.754.57-4.16.588zm5.536 9.624a17.426 17.426 0 0 0-.668-4.599c.935-.295 1.828-.709 2.656-1.232a9.87 9.87 0 0 1 2.11 5.831zm2.325-6.326A10.465 10.465 0 0 0 10.652.003c-.05-.001-.1-.003-.151-.003l-.15.003A10.466 10.466 0 0 0 2.367 3.87a10.468 10.468 0 0 0 .082 13.36l.002.002a10.464 10.464 0 0 0 8.2 3.766 10.465 10.465 0 0 0 7.997-3.884 10.472 10.472 0 0 0 0-13.227z"/></g></g></svg>