<svg xmlns="http://www.w3.org/2000/svg" width="21" height="21" viewBox="0 0 21 21"><g><g><g><g><g><path fill="#62259f" d="M8.57 14.98c-.149-.114-.546-.311-.612-.872a.307.307 0 1 0-.611.072c.059.501.331.945.747 1.216l.066.045c-.213.244-.39.449-.591.672a.31.31 0 0 0 .034.445 2.15 2.15 0 0 1-1.354 3.826 2.152 2.152 0 0 1-2.153-2.152c.001-.974.617-1.495.664-1.562l.913-.912a2.671 2.671 0 0 0 .351-3.34c.241-.22.45-.416.694-.633l.001-.001C13.39 5.837 19.788.724 19.908.656c-.082.082-12.085 12.08-12.14 12.142a.308.308 0 0 0 .46.408c.037-.042 12.027-12.028 12.115-12.116-.025.045-4.98 6.32-11.772 13.89zm11.035 1.304c.174.175.27.406.27.653a.917.917 0 0 1-.27.652l-.435.435-6.62-6.62 1.008-1.167zM2.975 1.83l.435-.435a.924.924 0 0 1 1.305 0l6.04 6.04c-.39.335-.779.671-1.167 1.008zM20.726.273L20.723.27a.94.94 0 0 0-.657-.271h-.002a.933.933 0 0 0-.582.204 317.625 317.625 0 0 0-8.259 6.83L5.15.959c-.6-.6-1.576-.6-2.175 0L.09 3.844a.308.308 0 0 0 .435.435L2.54 2.264l.44.44L.965 4.72a.308.308 0 0 0 .435.435L3.415 3.14l.44.44-2.014 2.014a.308.308 0 0 0 .435.435L4.29 4.015l.44.44-2.014 2.014a.308.308 0 0 0 .435.436L5.165 4.89l.44.44-2.014 2.015a.308.308 0 0 0 .435.435l2.015-2.015.44.44L4.466 8.22a.308.308 0 0 0 .435.435l2.015-2.014.44.44-2.014 2.014a.308.308 0 0 0 .435.435L7.79 7.516l.44.44-2.014 2.015a.308.308 0 0 0 .435.435L8.666 8.39l.456.456a319.93 319.93 0 0 0-2.813 2.478c-.277.246-.578.53-.875.797a.31.31 0 0 0-.056.454c.296.358.46.816.46 1.29 0 .552-.213 1.07-.6 1.456l-.928.928C2.972 17.62.617 16.685.615 14.746c.001-1.177.952-2.149 2.153-2.15a2.15 2.15 0 0 1 1.675.798.308.308 0 0 0 .446.035l.004-.004.003-.003a.308.308 0 0 0-.027-.478 2.764 2.764 0 0 0-2.1-.963h-.003a2.767 2.767 0 1 0 .848 5.401A2.768 2.768 0 0 0 6.247 21h.003a2.765 2.765 0 0 0 2.768-2.767c0-.728-.28-1.415-.79-1.935l.629-.714a332.547 332.547 0 0 0 3.287-3.714l.464.463-2.015 2.015a.308.308 0 1 0 .436.435l2.014-2.014.44.44-2.014 2.014a.308.308 0 1 0 .435.435l2.014-2.014.44.44-2.014 2.014a.308.308 0 1 0 .435.435l2.015-2.014.44.44-2.015 2.015a.308.308 0 1 0 .435.435l2.015-2.015.44.44-2.014 2.015a.308.308 0 1 0 .435.435l2.014-2.014.44.44-2.014 2.014a.308.308 0 1 0 .435.435l2.014-2.014.44.44-2.014 2.014a.308.308 0 1 0 .435.435l2.015-2.014.44.44-2.015 2.015a.308.308 0 1 0 .436.435l2.231-2.232.653-.653c.29-.29.45-.677.45-1.087 0-.411-.16-.798-.45-1.088l-6.08-6.08a310.961 310.961 0 0 0 6.836-8.253.933.933 0 0 0-.07-1.243z"/></g></g></g><g><g><g><path fill="#62259f" d="M3.314 15.402a.895.895 0 0 1-1.264 0c-.558-.558-.168-1.524.632-1.524.801 0 1.187.969.632 1.524zm.421-1.684c-.94-.94-2.543-.263-2.543 1.053a1.485 1.485 0 0 0 1.49 1.489 1.49 1.49 0 0 0 1.053-2.542z"/></g></g></g><g><g><g><path fill="#62259f" d="M6.566 19.143a.88.88 0 0 1-.972-.192.882.882 0 0 1-.19-.975.879.879 0 0 1 .822-.55c.493 0 .894.4.894.893a.882.882 0 0 1-.554.824zm-.34-2.313c-.612 0-1.139.352-1.373.918a1.467 1.467 0 0 0 .32 1.625 1.465 1.465 0 0 0 1.621.32c.569-.235.922-.762.922-1.374 0-.82-.668-1.489-1.49-1.489z"/></g></g></g></g></g></svg>