<svg xmlns="http://www.w3.org/2000/svg" width="17" height="15" viewBox="0 0 17 15"><g><g><g><path fill="#7835bb" d="M5.84 11.746a.706.706 0 0 0-.948 0l-1.203 1.12V.625C3.69.28 3.39 0 3.02 0c-.37 0-.671.28-.671.625v12.241l-1.203-1.12a.706.706 0 0 0-.948 0 .595.595 0 0 0 0 .883l2.347 2.188A.694.694 0 0 0 3.02 15c.171 0 .343-.06.474-.183l2.347-2.188a.595.595 0 0 0 0-.883z"/></g><g><path fill="none" stroke="#7835bb" stroke-miterlimit="50" d="M7.6 2.5h9"/></g><g><path fill="none" stroke="#7835bb" stroke-miterlimit="50" d="M7.6 5.5h7"/></g><g><path fill="none" stroke="#7835bb" stroke-miterlimit="50" d="M7.565 8.5h5"/></g></g></g></svg>