<svg xmlns="http://www.w3.org/2000/svg" width="21" height="21" viewBox="0 0 21 21"><g><g><g><g><g><path fill="#62259f" d="M10.5 12.95c-.772 0-1.4-.628-1.4-1.4 0-.772.628-1.4 1.4-1.4.772 0 1.4.628 1.4 1.4 0 .772-.628 1.4-1.4 1.4zm0-3.5c-1.158 0-2.1.942-2.1 2.1 0 1.158.942 2.1 2.1 2.1 1.158 0 2.1-.942 2.1-2.1 0-1.158-.942-2.1-2.1-2.1z"/></g></g></g><g><g><g><path fill="#62259f" d="M10.5 20.3c-5.404 0-9.8-4.396-9.8-9.8C.7 5.096 5.096.7 10.5.7c5.404 0 9.8 4.396 9.8 9.8 0 5.404-4.396 9.8-9.8 9.8zm0-20.3C4.71 0 0 4.71 0 10.5S4.71 21 10.5 21 21 16.29 21 10.5 16.29 0 10.5 0z"/></g></g></g><g><g><g><path fill="#62259f" d="M11.626 18.117a9.332 9.332 0 0 1 6.326-7.749l.243-.08c.002.07.005.14.005.212 0 3.863-2.86 7.07-6.574 7.617zM10.5 18.2c-.139 0-.277-.004-.414-.011A10.03 10.03 0 0 0 3.27 9.705l-.412-.138c.038-.308.093-.612.166-.908l2.823.752a4.485 4.485 0 0 0 2.98-.235l.133-.059a3.794 3.794 0 0 1 3.08 0 4.481 4.481 0 0 0 3.244.157l2.622-.874c.108.378.187.768.235 1.167l-.411.138a10.03 10.03 0 0 0-6.816 8.484 7.787 7.787 0 0 1-.414.011zm-7.7-7.7c0-.071.003-.142.005-.213l.243.081a9.332 9.332 0 0 1 6.326 7.749C5.66 17.57 2.8 14.363 2.8 10.5zm7.7-7.7c3.272 0 6.072 2.052 7.185 4.936l-2.622.874c-.9.3-1.872.253-2.74-.132a4.495 4.495 0 0 0-3.647 0l-.132.058a3.8 3.8 0 0 1-2.516.2l-2.805-.749C4.267 4.972 7.133 2.8 10.5 2.8zm0-.7c-4.632 0-8.4 3.768-8.4 8.4 0 4.632 3.768 8.4 8.4 8.4 4.632 0 8.4-3.768 8.4-8.4 0-4.632-3.768-8.4-8.4-8.4z"/></g></g></g></g></g></svg>