<svg xmlns="http://www.w3.org/2000/svg" width="21" height="18" viewBox="0 0 21 18"><g><g><g><g><g><path fill="#7835bb" d="M11.546 8.748h4.899v2.449h-4.899zm-.35 3.149h5.599c.21 0 .35-.14.35-.35v-3.15c0-.21-.14-.35-.35-.35h-5.598c-.21 0-.35.14-.35.35v3.15c0 .21.14.35.35.35z"/></g><g><path fill="#7835bb" d="M1.75 7.348h2.799c.21 0 .35-.14.35-.35 0-.21-.14-.35-.35-.35h-2.8c-.21 0-.35.14-.35.35 0 .21.14.35.35.35z"/></g><g><path fill="#7835bb" d="M5.948 7.348h2.8c.21 0 .35-.14.35-.35 0-.21-.14-.35-.35-.35h-2.8c-.21 0-.35.14-.35.35 0 .21.14.35.35.35z"/></g><g><path fill="#7835bb" d="M1.75 8.748h4.548c.21 0 .35-.14.35-.35 0-.21-.14-.35-.35-.35H1.749c-.21 0-.35.14-.35.35 0 .21.14.35.35.35z"/></g><g><path fill="#7835bb" d="M8.747 8.048h-1.05c-.21 0-.35.14-.35.35 0 .21.14.35.35.35h1.05c.21 0 .35-.14.35-.35 0-.21-.14-.35-.35-.35z"/></g><g><path fill="#7835bb" d="M20.294 4.584l-1.05 11.231a.706.706 0 0 1-.77.63l-16.13-1.82a.707.707 0 0 1-.63-.629h15.78c.77 0 1.4-.63 1.4-1.4V3.744l.805.07c.175 0 .35.105.455.245.105.14.175.35.14.525zM.7 12.596V5.25h17.494v7.347c0 .385-.315.7-.7.7H1.4a.702.702 0 0 1-.7-.7zM17.495.7c.384 0 .7.315.7.7v.35H.7V1.4c0-.385.315-.7.7-.7zM.7 2.45h17.494v2.099H.7zm19.979 1.26a1.304 1.304 0 0 0-.945-.526l-.84-.101V1.4c0-.77-.63-1.4-1.4-1.4H1.4C.63 0 0 .63 0 1.4v11.196c0 .632.425 1.17 1.003 1.342a1.362 1.362 0 0 0 1.236 1.388l16.165 1.819h.14c.7 0 1.33-.525 1.4-1.19l1.05-11.231a1.36 1.36 0 0 0-.315-1.015z"/></g></g></g></g></g></svg>