<svg xmlns="http://www.w3.org/2000/svg" width="21" height="21" viewBox="0 0 21 21"><g><g><g><path fill="#62259f" d="M20.322 5.852l-.73.244-.041.189a4.035 4.035 0 0 1-.552 1.328l-.105.162.346.691-.612.613-.692-.346-.162.104c-.41.264-.857.45-1.328.552l-.188.041-.244.731h-.867l-.244-.73-.188-.042a4.033 4.033 0 0 1-1.328-.552l-.162-.104-.692.346-.612-.613.345-.69-.104-.163a4.027 4.027 0 0 1-.552-1.328l-.04-.189-.731-.244v-.866l.73-.244.041-.188c.103-.472.289-.918.552-1.329l.104-.162-.345-.69.612-.614.692.346.162-.104c.41-.264.857-.45 1.328-.552l.188-.041.244-.73h.867l.244.73.188.041c.471.103.918.288 1.328.552l.162.105.692-.346.612.613-.346.69.105.163c.264.41.45.857.552 1.328l.04.188.731.244zm0 10.406H.677V7.113c0-.56.456-1.016 1.016-1.016h8.468v.244l.833.278c.109.418.275.818.496 1.194l-.393.787L12.4 9.903l.787-.394c.375.221.776.388 1.194.497l.278.833h1.843l.278-.833a4.672 4.672 0 0 0 1.194-.497l.787.394L20.064 8.6l-.394-.787c.22-.376.387-.776.497-1.194l.155-.052zm-1.016 2.032H1.693c-.56 0-1.016-.456-1.016-1.016v-.339h19.645v.34c0 .56-.456 1.015-1.016 1.015zm-5.08 2.033H6.774v-1.355h7.452zM20.167 4.22a4.698 4.698 0 0 0-.496-1.194l.393-.787L18.761.936l-.787.393A4.684 4.684 0 0 0 16.78.833L16.502 0H14.66l-.278.833a4.672 4.672 0 0 0-1.194.496L12.4.936l-1.303 1.303.393.787a4.71 4.71 0 0 0-.496 1.194l-.833.278v.921H1.693C.76 5.42 0 6.18 0 7.113v10.161c0 .934.76 1.694 1.693 1.694h4.404v1.355H4.742V21h11.516v-.677h-1.355v-1.355h4.403c.934 0 1.694-.76 1.694-1.694V4.498z"/></g><g><path fill="#62259f" d="M15.58 8.129a2.713 2.713 0 0 1-2.71-2.71 2.713 2.713 0 0 1 2.71-2.71 2.713 2.713 0 0 1 2.71 2.71 2.713 2.713 0 0 1-2.71 2.71zm0-6.097a3.39 3.39 0 0 0-3.387 3.387 3.39 3.39 0 0 0 3.387 3.387 3.39 3.39 0 0 0 3.388-3.387 3.39 3.39 0 0 0-3.388-3.387z"/></g><g><path fill="#62259f" d="M15.58 6.097a.678.678 0 1 1 .002-1.356.678.678 0 0 1-.002 1.356zm0-2.033c-.747 0-1.354.608-1.354 1.355 0 .748.607 1.355 1.354 1.355.748 0 1.355-.607 1.355-1.355 0-.747-.607-1.355-1.355-1.355z"/></g><g><path fill="#62259f" d="M2.032 8.129v.339a.678.678 0 0 1-.677.677v.678c.373 0 .677.303.677.677v.339c0 .56.456 1.016 1.016 1.016h.339v-.678h-.339a.34.34 0 0 1-.338-.338V10.5c0-.404-.178-.768-.46-1.016.282-.248.46-.612.46-1.016v-.339a.34.34 0 0 1 .338-.339h.339v-.677h-.339c-.56 0-1.016.456-1.016 1.016z"/></g><g><path fill="#62259f" d="M12.532 11.516v-.339c0-.56-.456-1.016-1.016-1.016h-.339v.678h.339a.34.34 0 0 1 .339.338v.34c0 .403.177.767.46 1.015-.283.248-.46.612-.46 1.016v.34a.34.34 0 0 1-.339.338h-.339v.677h.339c.56 0 1.016-.456 1.016-1.016v-.339c0-.373.304-.677.677-.677v-.677a.678.678 0 0 1-.677-.678z"/></g><g><path fill="#62259f" d="M4.064 7.452H10.5v.677H4.064z"/></g><g><path fill="#62259f" d="M5.42 8.806h5.08v.678H5.42z"/></g><g><path fill="#62259f" d="M4.064 8.806h.678v.678h-.678z"/></g><g><path fill="#62259f" d="M4.064 10.161H10.5v.678H4.064z"/></g><g><path fill="#62259f" d="M4.064 11.516H10.5v.678H4.064z"/></g><g><path fill="#62259f" d="M9.822 12.87h.678v.678h-.678z"/></g><g><path fill="#62259f" d="M4.064 12.87h5.081v.678h-5.08z"/></g><g><path fill="#62259f" d="M4.064 14.226H10.5v.677H4.064z"/></g></g></g></svg>