<svg xmlns="http://www.w3.org/2000/svg" width="11" height="16" viewBox="0 0 11 16"><g><g><g><g><path fill="#7835bb" d="M5.487 13.901C3.835 11.938.988 8.065.988 5.488c0-2.481 2.018-4.5 4.5-4.5 2.48 0 4.499 2.019 4.499 4.5 0 2.577-2.846 6.45-4.5 8.413zM5.487 0A5.494 5.494 0 0 0 0 5.488c0 3.755 4.91 9.268 5.12 9.5.196.22.539.219.735 0 .21-.232 5.12-5.745 5.12-9.5A5.494 5.494 0 0 0 5.487 0z"/></g></g><g><path fill="#7835bb" d="M5.487 7.26a1.775 1.775 0 0 1-1.772-1.772c0-.978.795-1.773 1.772-1.773.978 0 1.773.795 1.773 1.773 0 .977-.795 1.772-1.773 1.772zm0-4.533a2.764 2.764 0 0 0-2.76 2.76 2.764 2.764 0 0 0 2.76 2.762 2.764 2.764 0 0 0 2.761-2.761 2.764 2.764 0 0 0-2.76-2.761z"/></g></g></g></svg>