<svg xmlns="http://www.w3.org/2000/svg" width="77" height="48" viewBox="0 0 77 48"><g><g><g><g><path fill="#0b9f2e" d="M22.044 18.583a.935.935 0 0 0-.23-.677L14.41 9.484a.935.935 0 0 0-1.319-.085A38.512 38.512 0 0 0 4.698 19.88a.935.935 0 0 0 .372 1.268l9.84 5.378a.934.934 0 0 0 1.268-.372 25.464 25.464 0 0 1 5.55-6.93.931.931 0 0 0 .316-.64z"/></g><g><path fill="#fa0" d="M25.347 15.464a.934.934 0 0 0 1.264.388 25.163 25.163 0 0 1 8.432-2.713c.512-.07.87-.54.8-1.052L34.338.976a.936.936 0 0 0-1.052-.8c-4.492.609-8.8 1.994-12.804 4.118a.935.935 0 0 0-.388 1.263z"/></g><g><path fill="#0b9f2e" d="M13.31 30.501L2.487 27.565a.935.935 0 0 0-1.146.657 38.601 38.601 0 0 0-1.298 11.9.934.934 0 0 0 .977.89l11.201-.518a.934.934 0 0 0 .89-.977 25.506 25.506 0 0 1 .855-7.87.935.935 0 0 0-.656-1.146z"/></g><g><path fill="#fa0" d="M55.2 3.627A38.215 38.215 0 0 0 42.25.005a.934.934 0 0 0-1.02.84l-1.082 11.161c-.05.514.327.97.84 1.02a25.172 25.172 0 0 1 8.53 2.385.933.933 0 0 0 1.248-.436l4.87-10.101a.934.934 0 0 0-.436-1.247z"/></g><g><path fill="#fe5555" d="M71.67 19.302a.934.934 0 0 0-.104-.707 38.53 38.53 0 0 0-8.788-10.152.936.936 0 0 0-1.314.135l-7.076 8.7a.934.934 0 0 0 .136 1.315 25.478 25.478 0 0 1 5.813 6.714.935.935 0 0 0 1.282.323l9.625-5.753a.936.936 0 0 0 .426-.575z"/></g><g><path fill="#fe5555" d="M75.244 26.801a.934.934 0 0 0-1.171-.612l-10.7 3.353a.934.934 0 0 0-.613 1.17 25.431 25.431 0 0 1 1.128 8.805.933.933 0 0 0 .89.977l11.202.517.044.001c.496 0 .91-.39.933-.891a38.492 38.492 0 0 0-1.713-13.32z"/></g><g><path fill="#d8d8d8" d="M43.791 46.313c.14-.08.276-.165.41-.252l17.624.166a.961.961 0 0 0 .518-1.779l-14.932-9.3A8.926 8.926 0 0 0 47 34.34a8.707 8.707 0 0 0-5.322-4.084 8.707 8.707 0 0 0-6.65.876 8.708 8.708 0 0 0-4.084 5.322 8.707 8.707 0 0 0 .875 6.65 8.707 8.707 0 0 0 5.322 4.084 8.708 8.708 0 0 0 6.651-.876z"/></g></g></g></g></svg>