<svg xmlns="http://www.w3.org/2000/svg" width="21" height="12" viewBox="0 0 21 12"><g><g><g><path fill="#62259f" d="M20.343 6.86a.79.79 0 0 1-.168.499.445.445 0 0 1-.339.176h-.477V4.253h.477c.124 0 .244.063.339.176.107.129.168.31.168.499zm-1.64 1.716c0 .33-.307.6-.684.6h-.629V2.612h.63c.376 0 .683.268.683.599zm-1.969 1.966a.573.573 0 0 1-.185.42c-.246.231-.696.231-.942 0a.573.573 0 0 1-.185-.42V1.246c0-.157.066-.306.185-.419a.69.69 0 0 1 .47-.183.69.69 0 0 1 .472.183c.12.113.185.262.185.419v8.258zM6.234 6.55V5.238h8.531V6.55zm-.656 3.992a.573.573 0 0 1-.185.42c-.246.231-.696.231-.942 0a.573.573 0 0 1-.185-.42V1.245c0-.157.066-.305.185-.418a.69.69 0 0 1 .47-.183.69.69 0 0 1 .472.183c.12.113.185.262.185.419v5.633zM2.904 9.175a.656.656 0 0 1-.44-.164.494.494 0 0 1-.167-.365V3.142c0-.136.06-.266.167-.365a.658.658 0 0 1 .44-.164h.705v6.562zm-1.736-1.64a.45.45 0 0 1-.341-.178.793.793 0 0 1-.17-.502V4.933c0-.19.061-.373.17-.502a.45.45 0 0 1 .341-.178h.473v3.282zm19.51-3.526a1.104 1.104 0 0 0-.842-.412h-.477v-.385c0-.692-.601-1.256-1.34-1.256h-.629v-.71c0-.335-.142-.662-.39-.897-.495-.467-1.349-.467-1.843 0a1.241 1.241 0 0 0-.392.897v3.336h-8.53V1.246A1.24 1.24 0 0 0 5.842.35c-.494-.467-1.348-.467-1.842 0a1.24 1.24 0 0 0-.392.896v.71h-.705c-.332 0-.646.12-.884.338-.241.222-.38.53-.38.848v.455h-.472c-.319 0-.627.15-.846.414C.115 4.26 0 4.588 0 4.933v1.922c0 .345.114.673.322.922.22.263.527.414.846.414h.473v.455c0 .317.138.626.38.848.237.218.551.337.883.337h.705v.711c0 .335.143.662.391.896.247.233.575.362.922.362.347 0 .674-.129.921-.362a1.24 1.24 0 0 0 .391-.896V7.206h8.531v3.336c0 .335.143.662.391.896.248.233.575.362.922.362.347 0 .674-.129.921-.362a1.24 1.24 0 0 0 .391-.896v-.71h.63c.738 0 1.34-.564 1.34-1.256v-.385h.476c.317 0 .625-.15.843-.412.207-.248.321-.575.321-.919V4.928c0-.344-.114-.67-.321-.92z"/></g></g></g></svg>