<svg xmlns="http://www.w3.org/2000/svg" width="14" height="15" viewBox="0 0 14 15"><defs><clipPath id="j175a"><path fill="#fff" d="M7.057 7.651zm0 0c-1.702.488-2.946 2.01-2.947 3.806v.82a16.817 16.817 0 0 1-3.91-.71l-.193-.058L0 11.467V8.754c0-1.846 1.557-3.347 3.471-3.347h2.3c.087 0 .17.006.255.012a3.173 3.173 0 0 0 1.03 2.232zM1.91 2.615C1.91 1.171 3.124.001 4.622.001c1.497 0 2.71 1.17 2.71 2.614 0 .05-.004.098-.007.147a3.215 3.215 0 0 0-1.261 2.063 2.767 2.767 0 0 1-1.442.404c-1.498 0-2.711-1.17-2.711-2.614zM14 11.453v2.713h-.02l-.18.089c-.092.044-1.57.746-4.122.746-1.306 0-2.893-.184-4.72-.734l-.193-.059-.008-.042v-2.713c0-1.846 1.558-3.347 3.472-3.347h2.3c1.914 0 3.472 1.501 3.471 3.347zm-7.332-6.14C6.668 3.87 7.882 2.7 9.379 2.7c1.498 0 2.712 1.17 2.712 2.614s-1.214 2.614-2.712 2.614c-1.497 0-2.711-1.17-2.711-2.614z"/></clipPath></defs><g><g><g><path fill="none" stroke="#7835bb" stroke-miterlimit="50" stroke-width="2" d="M7.057 7.651s0 0 0 0 0 0 0 0zm0 0c-1.702.488-2.946 2.01-2.947 3.806v.82a16.817 16.817 0 0 1-3.91-.71l-.193-.058L0 11.467V8.754c0-1.846 1.557-3.347 3.471-3.347h2.3c.087 0 .17.006.255.012a3.173 3.173 0 0 0 1.03 2.232zM1.91 2.615C1.91 1.171 3.124.001 4.622.001c1.497 0 2.71 1.17 2.71 2.614 0 .05-.004.098-.007.147a3.215 3.215 0 0 0-1.261 2.063 2.767 2.767 0 0 1-1.442.404c-1.498 0-2.711-1.17-2.711-2.614zM14 11.453v2.713h-.02l-.18.089c-.092.044-1.57.746-4.122.746-1.306 0-2.893-.184-4.72-.734l-.193-.059-.008-.042v-2.713c0-1.846 1.558-3.347 3.472-3.347h2.3c1.914 0 3.472 1.501 3.471 3.347zm-7.332-6.14C6.668 3.87 7.882 2.7 9.379 2.7c1.498 0 2.712 1.17 2.712 2.614s-1.214 2.614-2.712 2.614c-1.497 0-2.711-1.17-2.711-2.614z" clip-path="url(&quot;#j175a&quot;)"/></g></g></g></svg>