<svg xmlns="http://www.w3.org/2000/svg" width="25" height="19" viewBox="0 0 25 19"><g><g><g><g><g><path fill="#a8a8a8" d="M14.699 15.34H9.73v-1.232H14.7zm.21-2.179H9.521a.737.737 0 0 0-.736.736v1.653c0 .406.33.736.736.736h5.388c.406 0 .737-.33.737-.736v-1.653a.737.737 0 0 0-.737-.736z"/></g></g></g><g><g><g><path fill="#a8a8a8" d="M22.772 17.948H1.658a.607.607 0 0 1-.606-.606V9.925c0-.334.272-.606.606-.606h5.578c.016 0 .03.01.036.024l.683 1.513c.176.39.566.643.995.643h6.53c.429 0 .82-.253.996-.643l.682-1.513a.04.04 0 0 1 .036-.024h5.578c.334 0 .606.272.606.606v7.416a.607.607 0 0 1-.606.606zM4.722 2.52a.621.621 0 0 1 .556-.342h.675v.835h-.63a.473.473 0 0 0-.473.473v2.54h-.586a.473.473 0 0 0-.473.473v1.769H1.814zm13.911 1.44v2.066H5.797V3.96zM6.9.947h10.63v2.066H6.9zm12.792 6.026zm0 1.295h-2.498c-.428 0-.82.253-.995.643l-.683 1.513a.04.04 0 0 1-.036.024H8.95a.04.04 0 0 1-.036-.024l-.682-1.513a1.094 1.094 0 0 0-.996-.643H4.738V6.973h14.954zm-1.215-6.09h.675c.237 0 .45.13.557.342l2.907 5.748H20.64V6.499a.473.473 0 0 0-.473-.473h-.586v-2.54a.473.473 0 0 0-.473-.473h-.63zm5.713 6.89l.008-.004-3.55-7.019a1.668 1.668 0 0 0-1.496-.92h-.675V.474A.473.473 0 0 0 18.004 0H6.426a.473.473 0 0 0-.473.473v.653h-.675c-.636 0-1.209.352-1.496.92L.232 9.063l.008.004c-.152.25-.24.544-.24.858v7.415A1.66 1.66 0 0 0 1.658 19h21.114a1.66 1.66 0 0 0 1.658-1.659V9.927c0-.314-.088-.607-.24-.858z"/></g></g></g></g></g></svg>