<svg xmlns="http://www.w3.org/2000/svg" width="27" height="19" viewBox="0 0 27 19"><g><g><g><g><g><path fill="#7835bb" d="M13.628 0h-.036-.002a.51.51 0 0 0-.508.512v.001a.51.51 0 0 0 .507.514h.038a.51.51 0 0 0 .508-.512V.514A.51.51 0 0 0 13.628 0z"/></g></g></g><g><g><g><path fill="#7835bb" d="M25.961 3.19C25.628 1.906 24.644.897 23.395.553 22.106.2 18.514.07 15.727.022a.512.512 0 0 0-.517.505.511.511 0 0 0 .5.522c3.857.065 6.492.241 7.418.496.9.248 1.61.978 1.851 1.906.5 1.914.505 6.008.505 6.049 0 .041-.006 4.134-.505 6.05a2.661 2.661 0 0 1-1.851 1.904c-1.861.513-9.55.519-9.628.519-.077 0-7.767-.006-9.628-.519A2.661 2.661 0 0 1 2.02 15.55c-.5-1.915-.505-6.008-.505-6.049 0-.041.006-4.135.505-6.05a2.661 2.661 0 0 1 1.851-1.905c.947-.26 3.66-.438 7.638-.5a.51.51 0 0 0 .5-.521.512.512 0 0 0-.516-.506C8.621.063 4.921.192 3.606.554 2.356.898 1.372 1.907 1.039 3.19.506 5.232.5 9.327.5 9.5c0 .173.006 4.268.539 6.31.333 1.283 1.317 2.292 2.566 2.635 1.991.549 9.573.555 9.895.555.322 0 7.904-.006 9.894-.554 1.25-.344 2.234-1.353 2.567-2.635.533-2.043.539-6.138.539-6.311 0-.173-.006-4.268-.539-6.31z"/></g></g></g><g><g><g><path fill="#7835bb" d="M11.575 12.383v-5.61l4.777 2.805zm6.044-3.249l-6.297-3.697a.503.503 0 0 0-.509-.001.515.515 0 0 0-.254.445v7.394a.515.515 0 0 0 .508.514.503.503 0 0 0 .255-.07l6.297-3.697a.515.515 0 0 0 0-.888z"/></g></g></g></g></g></svg>