<svg xmlns="http://www.w3.org/2000/svg" width="21" height="19" viewBox="0 0 21 19"><g><g><g><path fill="#62259f" d="M20.3 11.99a.35.35 0 0 1-.301.347l-.097.013-8.002 1.104v-.505c0-.58-.47-1.05-1.05-1.05h-.7c-.58 0-1.05.47-1.05 1.05v.505l-8.099-1.117A.35.35 0 0 1 .7 11.99V4.199a.35.35 0 0 1 .35-.35h18.9a.35.35 0 0 1 .35.35zm-9.1 3.059a.35.35 0 0 1-.35.35h-.7a.35.35 0 0 1-.35-.35v-2.1a.35.35 0 0 1 .35-.35h.7a.35.35 0 0 1 .35.35zm8.4 2.8a.35.35 0 0 1-.35.35H1.75a.35.35 0 0 1-.35-.35v-4.75l7.7 1.061v.889c0 .58.47 1.05 1.05 1.05h.7c.58 0 1.05-.47 1.05-1.05v-.889l7.7-1.062zm-6.3-14.7H7.7v-1.05h5.6zm-7-1.4c0-.58.47-1.05 1.05-1.05h6.3c.58 0 1.05.47 1.05 1.05v1.4H14v-1.4a.35.35 0 0 0-.35-.35h-6.3a.35.35 0 0 0-.35.35v1.4h-.7zm13.65 1.4H15.4v-1.4a1.752 1.752 0 0 0-1.75-1.75h-6.3a1.752 1.752 0 0 0-1.75 1.75v1.4H1.05c-.58 0-1.05.47-1.05 1.05v7.79c.002.445.282.84.7.99v4.87c0 .58.47 1.05 1.05 1.05h17.5c.58 0 1.05-.47 1.05-1.05v-4.87c.418-.15.698-.545.7-.99V4.2c0-.58-.47-1.05-1.05-1.05z"/></g></g></g></svg>