<svg xmlns="http://www.w3.org/2000/svg" width="21" height="21" viewBox="0 0 21 21"><g><g><g><g><path fill="#7835bb" d="M2.953 18.047a.328.328 0 0 0-.328.328v2.297a.328.328 0 0 0 .656 0v-2.297a.328.328 0 0 0-.328-.328z"/></g><g><path fill="#7835bb" d="M6.154 9.419l-.071-.23-.243-.002a.846.846 0 0 1-.823-.642l-.187-.749a.465.465 0 0 1 .451-.578h.403l-.24-1.17a4.646 4.646 0 0 1-.066-.42c.314-.67 1.137-.934 1.446-1.012l1.034.689a3.58 3.58 0 0 0 3.971 0l1.034-.69c.31.079 1.132.344 1.446 1.014-.016.14-.037.28-.066.42l-.24 1.167v.003h.403a.46.46 0 0 1 .33.138c.116.115.161.282.12.44l-.186.748a.846.846 0 0 1-.823.642h-.24l-.074.232a3.842 3.842 0 0 1-3.688 2.721h-.002A3.841 3.841 0 0 1 6.154 9.42zm4.018 7.315a.328.328 0 0 0-.328-.328 2.625 2.625 0 0 1-2.599-2.255.984.984 0 0 0 .63-.918v-.888a4.518 4.518 0 0 0 6.215-2.521 1.502 1.502 0 0 0 1.217-1.12l.187-.748a1.124 1.124 0 0 0-.7-1.324l.092-.452c.038-.187.066-.375.084-.564v-.003a5.076 5.076 0 0 0-.374-2.448A5.138 5.138 0 0 0 9.844 0h-.001a5.124 5.124 0 0 0-1.941.377.328.328 0 1 0 .247.608 4.498 4.498 0 0 1 6.155 3.613c-.628-.512-1.407-.648-1.453-.656l-.128-.022-1.258.839a2.924 2.924 0 0 1-3.243 0L6.965 3.92l-.128.022c-.046.007-.826.144-1.454.656.094-.774.39-1.509.857-2.132a.328.328 0 0 0-.526-.392 5.14 5.14 0 0 0-1.02 3.062c0 .35.037.7.107 1.044l.092.451a1.122 1.122 0 0 0-.7 1.325l.188.747a1.502 1.502 0 0 0 1.217 1.12 4.516 4.516 0 0 0 1.62 2.132v1.278a.328.328 0 0 1-.269.323l-4.255.774A3.28 3.28 0 0 0 0 17.558v3.114a.328.328 0 0 0 .656 0v-3.114c0-1.269.907-2.356 2.156-2.583l3.79-.689a3.28 3.28 0 0 0 3.242 2.776.328.328 0 0 0 .328-.328z"/></g><g><path fill="#7835bb" d="M6.893 1.663a.328.328 0 1 0 0-.656.328.328 0 0 0 0 .656z"/></g><g><path fill="#7835bb" d="M20.707 12.2a3.763 3.763 0 0 0-3.302-2.304.328.328 0 1 0-.03.655 3.114 3.114 0 1 1-1.196 6.045l-.194-.07h-.001l-1 1-1.716.245h-.001l-.476 1.43-1.31.436-.68.68a1.804 1.804 0 0 1-1.188-.205l4.9-4.899-.1-.21a3.14 3.14 0 0 1-.303-1.344 3.104 3.104 0 0 1 1.073-2.353.328.328 0 0 0-.43-.496 3.777 3.777 0 0 0-1.026 4.261l-5.105 5.105.282.239a2.46 2.46 0 0 0 2.13.525l.092-.02.709-.71 1.474-.49.453-1.356 1.53-.22.867-.865c.347.102.706.154 1.067.154h.002a3.775 3.775 0 0 0 3.479-5.233z"/></g><g><path fill="#7835bb" d="M16.098 10.736a.328.328 0 1 0 0-.656.328.328 0 0 0 0 .656z"/></g><g><path fill="#7835bb" d="M18.143 12.88a.328.328 0 1 1 .464-.463.328.328 0 1 1-.464.464zm.928.465a.984.984 0 1 0-1.392-1.392.984.984 0 0 0 1.392 1.392z"/></g><g><path fill="#7835bb" d="M19.36 18.047a.328.328 0 0 0-.329.328v2.297a.328.328 0 0 0 .656 0v-2.297a.328.328 0 0 0-.328-.328z"/></g></g></g></g></svg>