<svg xmlns="http://www.w3.org/2000/svg" width="21" height="21" viewBox="0 0 21 21"><g><g><g><path fill="#7835bb" d="M11.29 3.923c0-.758.616-1.375 1.374-1.375a1.376 1.376 0 0 1 0 2.75 1.376 1.376 0 0 1-1.375-1.375zm3.362 0c0-1.097-.892-1.99-1.988-1.99-1.097 0-1.99.893-1.99 1.99s.893 1.99 1.99 1.99a1.992 1.992 0 0 0 1.988-1.99z"/></g><g><path fill="#7835bb" d="M9.276 2.868a.307.307 0 0 0 0-.615h-.809a.307.307 0 0 0 0 .615z"/></g><g><path fill="#7835bb" d="M2.39 2.868h4.085a.307.307 0 0 0 0-.615H2.39a.307.307 0 0 0 0 .615z"/></g><g><path fill="#7835bb" d="M2.39 5.593h1.054a.307.307 0 0 0 0-.615H2.39a.307.307 0 0 0 0 .615z"/></g><g><path fill="#7835bb" d="M5.436 4.978a.307.307 0 0 0 0 .615h.666a.307.307 0 0 0 0-.615z"/></g><g><path fill="#7835bb" d="M2.39 4.23h6.886a.307.307 0 0 0 0-.615H2.39a.307.307 0 0 0 0 .615z"/></g><g><path fill="#7835bb" d="M3.196 7.714h10.343a.5.5 0 0 1 0 .998H3.196a.5.5 0 0 1 0-.998zm0 1.613h10.343a1.115 1.115 0 0 0 0-2.228H3.196a1.115 1.115 0 0 0 0 2.228z"/></g><g><path fill="#7835bb" d="M3.196 10.536h10.343a.5.5 0 0 1 0 .997H3.196a.5.5 0 0 1 0-.997zm0 1.612h10.343a1.115 1.115 0 0 0 0-2.227H3.196a1.115 1.115 0 0 0 0 2.227z"/></g><g><path fill="#7835bb" d="M3.196 13.357h10.343a.5.5 0 0 1 0 .997H3.196a.5.5 0 0 1 0-.997zm0 1.612h10.343a1.115 1.115 0 0 0 0-2.227H3.196a1.115 1.115 0 0 0 0 2.227z"/></g><g><path fill="#7835bb" d="M3.196 16.178h7.255a.5.5 0 0 1 0 .997H3.196a.5.5 0 0 1 0-.997zm0 1.613h7.255a1.115 1.115 0 0 0 0-2.228H3.196a1.115 1.115 0 0 0 0 2.228z"/></g><g><path fill="#7835bb" d="M20.385 18.186a.348.348 0 0 1-.348.348h-6.03a.348.348 0 0 1-.347-.348v-.783c0-.192.156-.348.347-.348h6.03c.192 0 .348.156.348.348zm-1.15 1.656a.686.686 0 0 1-.673.539h-3.08a.686.686 0 0 1-.672-.539l-.156-.693h4.737zm-3.451-4.428c0-.015.012-.028.027-.028h2.422c.015 0 .028.013.028.028v1.026h-2.477zm4.253 1.026h-1.162v-1.026a.643.643 0 0 0-.384-.588l.451-2.066a1.978 1.978 0 0 0-.42-1.689 1.961 1.961 0 0 0-1.787-.674V1.021C16.735.458 16.277 0 15.714 0H1.02C.458 0 0 .458 0 1.02v3.3a.307.307 0 1 0 .615 0v-3.3c0-.224.182-.406.406-.406h14.693c.224 0 .406.182.406.406v9.574a1.965 1.965 0 0 0-1.038 1.44.307.307 0 1 0 .607.095 1.348 1.348 0 0 1 2.364-.661c.27.318.377.752.288 1.16l-.467 2.142h-1.703l-.287-1.316a.308.308 0 1 0-.601.131l.27 1.24a.643.643 0 0 0-.384.588v1.026h-1.162a.964.964 0 0 0-.962.963v.783c0 .531.432.963.962.963h.016l.187.829c.033.147.09.284.166.406H1.021a.407.407 0 0 1-.406-.406V5.732a.307.307 0 1 0-.615 0v14.246C0 20.54.458 21 1.02 21l17.54-.004c.615 0 1.138-.419 1.273-1.018l.187-.829h.016c.53 0 .963-.432.963-.963v-.783a.964.964 0 0 0-.963-.963z"/></g></g></g></svg>