<svg xmlns="http://www.w3.org/2000/svg" width="17" height="17" viewBox="0 0 17 17"><g><g><g><path fill="#0a0a0a" d="M6.667 1.674c2.9 0 5.244 2.376 5.244 5.282 0 2.92-2.345 5.281-5.244 5.281-2.898 0-5.243-2.376-5.243-5.281 0-2.906 2.359-5.282 5.243-5.282zm0 11.737a6.266 6.266 0 0 0 4.093-1.503l4.974 5.01a.567.567 0 0 0 .412.172.567.567 0 0 0 .412-.172.59.59 0 0 0 0-.83l-4.974-5.01a6.473 6.473 0 0 0 1.492-4.122C13.076 3.392 10.206.5 6.667.5 3.143.5.26 3.406.26 6.956c0 3.564 2.884 6.455 6.408 6.455z"/></g></g></g></svg>