<svg xmlns="http://www.w3.org/2000/svg" width="21" height="21" viewBox="0 0 21 21"><g><g><g><g><g><g><path fill="#62259f" d="M18.9 8.234a3.153 3.153 0 0 1 2.1 2.965v6.651A3.153 3.153 0 0 1 17.85 21h-2.1a3.153 3.153 0 0 1-3.15-3.15V16.1H1.05C.47 16.1 0 15.628 0 15.05V2.1c0-.58.47-1.05 1.05-1.05h.35C1.4.47 1.87 0 2.45 0H8.4a1.39 1.39 0 0 1 1.05.484A1.39 1.39 0 0 1 10.5 0h5.95c.58 0 1.05.47 1.05 1.05h.35c.58 0 1.05.47 1.05 1.05v6.134zm-1.4-.184h.35c.117 0 .233.007.35.02V2.1a.35.35 0 0 0-.35-.35h-.35zM3.5.7v4.602l.777-.97a.35.35 0 0 1 .547-.001l.776.971V.7zM2.1 12.6h6.266c.26.002.515.077.734.216V1.4a.7.7 0 0 0-.7-.7H6.3v5.6a.35.35 0 0 1-.623.219L4.55 5.11 3.422 6.519a.35.35 0 0 1-.623-.22V.7H2.45a.35.35 0 0 0-.349.351zm0 1.4H9.09a.753.753 0 0 0-.725-.7H2.101zm10.5.7H1.75a.35.35 0 0 1-.35-.35V1.75h-.35a.351.351 0 0 0-.35.35v12.95c0 .193.156.35.35.35H12.6zm0-1.401h-2.065a.754.754 0 0 0-.726.7H12.6zm0-2.098a3.153 3.153 0 0 1 3.15-3.15h1.05v-7a.35.35 0 0 0-.35-.35H10.5a.7.7 0 0 0-.7.7v11.415c.22-.14.475-.214.735-.216H12.6zm3.15-2.451a2.452 2.452 0 0 0-2.45 2.45V13.3h3.15v-4.55zm4.55 9.1V14h-7.001v3.85a2.452 2.452 0 0 0 2.45 2.45h2.101a2.452 2.452 0 0 0 2.45-2.451zm0-6.65a2.452 2.452 0 0 0-2.45-2.45h-.7v4.55h3.15z"/></g></g></g></g></g></g></svg>