<svg xmlns="http://www.w3.org/2000/svg" width="21" height="21" viewBox="0 0 21 21"><g><g><g><path fill="#7835bb" d="M10.5 15.166A4.672 4.672 0 0 1 5.833 10.5 4.672 4.672 0 0 1 10.5 5.833a4.672 4.672 0 0 1 4.666 4.667 4.672 4.672 0 0 1-4.666 4.666zm0-10.11A5.45 5.45 0 0 0 5.055 10.5a5.45 5.45 0 0 0 5.445 5.444 5.45 5.45 0 0 0 5.444-5.444A5.45 5.45 0 0 0 10.5 5.055z"/></g><g><path fill="#7835bb" d="M20.222 11.752a.304.304 0 0 1-.303.303h-1.397l-.07.3a8.122 8.122 0 0 1-1.016 2.455l-.164.262.988.988a.303.303 0 0 1 0 .429l-1.771 1.77a.303.303 0 0 1-.43 0l-.987-.987-.262.164a8.104 8.104 0 0 1-2.454 1.016l-.3.07v1.397a.304.304 0 0 1-.304.303H9.248a.304.304 0 0 1-.304-.303v-1.397l-.3-.07a8.122 8.122 0 0 1-2.455-1.016l-.262-.164-.987.988a.303.303 0 0 1-.43 0l-1.77-1.771a.303.303 0 0 1 0-.43l.987-.987-.163-.262a8.104 8.104 0 0 1-1.016-2.454l-.07-.3H1.08a.304.304 0 0 1-.303-.304V9.248c0-.168.136-.304.303-.304h1.397l.07-.3a8.114 8.114 0 0 1 1.016-2.455l.163-.262-.987-.987a.303.303 0 0 1 0-.43l1.77-1.77a.303.303 0 0 1 .43 0l.987.987.262-.163a8.104 8.104 0 0 1 2.455-1.016l.3-.07V1.08c0-.167.136-.303.304-.303h2.504c.167 0 .303.136.303.303v1.397l.3.07c.87.203 1.696.544 2.455 1.016l.262.163.988-.987a.303.303 0 0 1 .429 0l1.77 1.77a.303.303 0 0 1 0 .43l-.987.987.164.262a8.096 8.096 0 0 1 1.016 2.455l.07.3h1.397c.167 0 .303.136.303.304zm-.303-3.585h-.785a8.863 8.863 0 0 0-.88-2.123l.555-.554c.205-.204.317-.476.317-.765 0-.289-.112-.56-.317-.765l-1.77-1.77a1.108 1.108 0 0 0-1.53 0l-.554.554a8.888 8.888 0 0 0-2.122-.878V1.08C12.833.485 12.348 0 11.752 0H9.248C8.65 0 8.167.485 8.167 1.081v.785c-.744.2-1.455.495-2.123.879L5.49 2.19a1.107 1.107 0 0 0-1.53 0L2.19 3.96a1.075 1.075 0 0 0-.317.766c0 .288.113.56.317.764l.554.555a8.852 8.852 0 0 0-.878 2.122H1.08C.485 8.167 0 8.65 0 9.247v2.505c0 .596.485 1.081 1.081 1.081h.785c.2.743.495 1.455.879 2.122l-.555.555a1.075 1.075 0 0 0-.316.764c0 .29.112.56.316.765l1.77 1.77c.41.41 1.122.41 1.53 0l.555-.554a8.898 8.898 0 0 0 2.122.88v.784c0 .596.485 1.081 1.081 1.081h2.504c.596 0 1.081-.485 1.081-1.081v-.785a8.883 8.883 0 0 0 2.122-.879l.555.555c.409.409 1.12.408 1.53 0l1.77-1.77c.204-.205.316-.477.316-.766 0-.288-.112-.56-.316-.764l-.555-.555a8.898 8.898 0 0 0 .88-2.122h.784c.596 0 1.081-.485 1.081-1.081V9.248c0-.597-.485-1.081-1.081-1.081z"/></g><g><path fill="#7835bb" d="M10.5 13.61a3.115 3.115 0 0 1-3.111-3.11 3.115 3.115 0 0 1 3.11-3.111 3.115 3.115 0 0 1 3.112 3.11 3.115 3.115 0 0 1-3.111 3.112zm0-6.999A3.893 3.893 0 0 0 6.61 10.5a3.893 3.893 0 0 0 3.889 3.889 3.893 3.893 0 0 0 3.889-3.89 3.893 3.893 0 0 0-3.89-3.888z"/></g></g></g></svg>