<svg xmlns="http://www.w3.org/2000/svg" width="19" height="20" viewBox="0 0 19 20"><g><g><g><g><path fill="#0b9f2e" d="M12.695 18.69c-.445 0-.767-.365-.767-.81 0-.447.364-.811.767-.811.404 0 .768.364.768.81 0 .446-.364.81-.768.81zm0-2.424c-.887 0-1.578.73-1.578 1.617 0 .888.73 1.617 1.578 1.617.85 0 1.579-.729 1.579-1.617s-.73-1.617-1.579-1.617z"/></g><g><path fill="#0b9f2e" d="M4.083 18.69c-.445 0-.767-.365-.767-.81 0-.447.364-.811.767-.811.446 0 .768.364.768.81 0 .45-.36.81-.768.81zm0-2.424c-.888 0-1.578.73-1.578 1.617 0 .888.73 1.617 1.578 1.617.888 0 1.579-.729 1.579-1.617s-.73-1.617-1.579-1.617z"/></g><g><path fill="#0b9f2e" d="M13.665 11.617H3.762l-2.63-7.844h14.514zM16.495.5l-.628 2.466H0l2.928 8.674c-.981.144-1.714.973-1.714 2.04 0 1.17.888 2.101 2.02 2.101h10.997v-.767H3.234c-.686 0-1.213-.566-1.213-1.295 0-.73.566-1.296 1.213-1.296H14.27l2.87-11.116h1.616V.5z"/></g><g><path fill="#0b9f2e" d="M5.134 10.24V5.673h.81v4.567z"/></g><g><path fill="#0b9f2e" d="M8.008 10.24V5.673h.81v4.567z"/></g><g><path fill="#0b9f2e" d="M10.877 10.24V5.673h.81v4.567z"/></g></g></g></g></svg>