<svg xmlns="http://www.w3.org/2000/svg" width="21" height="19" viewBox="0 0 21 19"><g><g><g><path fill="#a8a8a8" d="M4.071 5.09h5.09a.34.34 0 1 0 0-.68H4.07a.34.34 0 1 0 0 .68z"/></g><g><path fill="#a8a8a8" d="M15.607 7.125H4.071a.34.34 0 1 0 0 .679h11.536a.34.34 0 1 0 0-.679z"/></g><g><path fill="#a8a8a8" d="M15.607 9.84H4.071a.34.34 0 1 0 0 .678h11.536a.34.34 0 1 0 0-.679z"/></g><g><path fill="#a8a8a8" d="M19.679 13.232c0 .736-.622 1.357-1.358 1.357h-9.1l1.215-1.411a.34.34 0 0 0-.514-.443L8.232 14.7l-2.803 3.083V14.93a.34.34 0 0 0-.34-.34H2.036a1.375 1.375 0 0 1-1.357-1.357V2.036C.679 1.3 1.3.679 2.036.679H18.32c.736 0 1.358.621 1.358 1.357zM18.32 0H2.036C.932 0 0 .932 0 2.036v11.196c0 1.103.932 2.036 2.036 2.036H4.75v3.393a.34.34 0 0 0 .59.228l3.292-3.621h9.69c1.103 0 2.035-.933 2.035-2.036V2.036C20.357.932 19.425 0 18.321 0z"/></g></g></g></svg>