<svg xmlns="http://www.w3.org/2000/svg" width="21" height="18" viewBox="0 0 21 18"><g><g><g><path fill="#7835bb" d="M16.047 7.057V6.3l4.33-1.65v.756zm.948 4.83c-.305.237-.621.456-.948.656V7.724l.948-.361zm-6.183-2.835v-.756l4.61-1.758v.757zM.624 4.65l9.564 3.647v.756L.624 5.406zm15.672 11.354A.562.562 0 1 1 15.172 16a.562.562 0 0 1 1.124.002zM20.8 3.905l-6.641-2.532a.312.312 0 0 0-.222.583l5.876 2.24-4.068 1.552L10.63 3.43a.312.312 0 1 0-.257.568l4.552 2.062L10.5 7.747l-9.312-3.55L10.5.646l2.295.875a.312.312 0 0 0 .223-.583L10.612.021a.312.312 0 0 0-.223 0L.201 3.905a.312.312 0 0 0-.2.292V5.62c0 .13.08.245.2.291l3.182 1.213v1.081a.312.312 0 1 0 .623 0v-.843l6.383 2.434a.313.313 0 0 0 .223 0l4.81-1.835v4.936a10.612 10.612 0 0 1-4.922 1.218c-2.345 0-4.645-.79-6.494-2.229V9.454a.312.312 0 1 0-.623 0v2.584c0 .095.042.184.116.243A11.237 11.237 0 0 0 10.5 14.74c1.71 0 3.398-.398 4.923-1.143v1.263a1.186 1.186 0 0 0 .312 2.328c.653 0 1.185-.532 1.185-1.185 0-.546-.37-1.006-.873-1.143v-1.592c.508-.29.995-.618 1.455-.987a.312.312 0 0 0 .116-.243V7.125L20.8 5.912c.12-.046.2-.162.2-.291V4.197c0-.13-.08-.246-.2-.292z"/></g></g></g></svg>