<svg xmlns="http://www.w3.org/2000/svg" width="21" height="21" viewBox="0 0 21 21"><g><g><g><g><path fill="#7835bb" d="M18.55 14.7h-3.5a1.753 1.753 0 0 1-1.715-1.4h6.93a1.753 1.753 0 0 1-1.715 1.4zm-1.84-9.114c.057.02.12.018.177-.007l3.218 7.02h-6.61zM11.755 18.9h-2.51l.7-.7h1.11zm2.245.7c.445.001.841.281.99.7H6.01c.149-.419.545-.699.99-.7zM10.85 4.9v12.6h-.7V4.9zm-.7-.7v-.7h.7v.7zM9.914.985a.766.766 0 0 1 1.171 0c.142.18.192.416.136.638L10.927 2.8h-.854L9.78 1.623a.739.739 0 0 1 .135-.638zM7.504 12.6H.896L4.11 5.585c.06.016.12.016.18 0zM5.95 14.7h-3.5a1.753 1.753 0 0 1-1.715-1.4h6.93a1.753 1.753 0 0 1-1.715 1.4zm15.018-1.895L17.52 5.28l.836-.417-.313-.626-.815.406-.11-.24a.35.35 0 0 0-.636 0l-.099.214A4.502 4.502 0 0 0 14.49 4.2h-2.94v-.7h.7v-.7h-.602l.252-1.006a1.443 1.443 0 1 0-2.8 0l.252 1.006H8.75v.7h.7v.7H6.512c-.655.001-1.302.144-1.896.42l-.098-.214a.35.35 0 0 0-.636 0l-.11.24-.816-.408-.313.627.837.418-3.448 7.522a.342.342 0 0 0-.032.145 2.453 2.453 0 0 0 2.45 2.45h3.5a2.453 2.453 0 0 0 2.45-2.45c0-.05-.013-.1-.035-.144L4.908 5.253A3.807 3.807 0 0 1 6.512 4.9H9.45v12.806l-1.195 1.194H7a1.752 1.752 0 0 0-1.75 1.75c0 .194.157.35.35.35h9.8a.35.35 0 0 0 .35-.35A1.752 1.752 0 0 0 14 18.9h-1.255l-1.195-1.194V4.899h2.94c.554 0 1.101.121 1.604.354l-3.462 7.55a.342.342 0 0 0-.032.146 2.453 2.453 0 0 0 2.45 2.45h3.5A2.453 2.453 0 0 0 21 12.95a.34.34 0 0 0-.035-.144z"/></g></g></g></g></svg>