<svg xmlns="http://www.w3.org/2000/svg" width="16" height="15" viewBox="0 0 16 15"><g><g><path fill="#7835bb" d="M13.122 3.983l-2.737 2.281C9.644 6.882 9.218 7.77 9.218 8.7v3.096l-2.437 1.523V8.7c0-.93-.425-1.817-1.166-2.435l-2.738-2.28A4.47 4.47 0 0 1 1.29 1.172H14.71a4.47 4.47 0 0 1-1.587 2.811zM15.374 0H.625C.28 0 0 .262 0 .586c0 1.631.746 3.19 2.047 4.273L4.784 7.14c.475.396.747.964.747 1.56v5.713c0 .467.557.747.972.488l3.687-2.305a.577.577 0 0 0 .278-.487v-3.41c0-.595.273-1.163.747-1.559l2.737-2.28C15.253 3.774 16 2.216 16 .585 16 .262 15.72 0 15.374 0z"/></g></g></svg>