<svg xmlns="http://www.w3.org/2000/svg" width="20" height="19" viewBox="0 0 20 19"><g><g><g><path fill="#7835bb" d="M15.916 2.786l-2.666-.053c-1.893 0-3.74 1.54-3.74 3.434L9.507 8.24H7.673c-.2 0-.361.161-.361.36l.007 3.282c0 .2.162.361.362.361h1.968l-.005 5.744H1.356a.362.362 0 0 1-.361-.36V1.297c0-.198.162-.36.36-.36h.723c.2 0 .355-.269.355-.503 0-.234-.155-.434-.355-.434h-.722C.758 0-.001.7-.001 1.299v16.59c0 .598.76 1.084 1.357 1.084h8.822c.2 0 .362-.161.362-.36v-7.047c0-.2-.162-.361-.362-.361H8.254V9.148h1.924c.2 0 .362-.162.362-.362V6.373a2.714 2.714 0 0 1 2.71-2.711h2.071v2.057h-2.07c-.355 0-.655.3-.655.654v2.413c0 .2.162.362.362.362h2.312L15 11.205h-2.042c-.2 0-.362.161-.362.36v7.047c0 .2.162.361.362.361H14.3c.2 0 .413-.271.413-.471 0-.2-.213-.514-.413-.514h-.848l.005-5.743 2.103-.048a.361.361 0 0 0 .359-.314l.358-3.281a.361.361 0 0 0-.358-.409l-2.466.048.004-1.56 2.458.053c.2 0 .362-.162.362-.361V3.147c0-.2-.162-.36-.362-.36z"/></g><g><path fill="#7835bb" d="M17.695 0H4.979c-.2 0-.383.215-.385.449-.003.234.175.489.374.489h12.716c.2 0 .362.162.362.36v16.33c0 .198-.162.36-.362.36h-.722c-.2 0-.363.314-.363.514s.295.498.495.498h.952c.597 0 1.083-.486 1.083-1.084L18.997 1.3C18.997.7 18.292 0 17.695 0z"/></g><g><path fill="#7835bb" d="M15.648 17.989a.492.492 0 1 0-.001.984.492.492 0 0 0 .001-.984z"/></g><g><path fill="#7835bb" d="M3.416.938a.468.468 0 1 0 0-.937.468.468 0 1 0 0 .937z"/></g></g></g></svg>