<svg xmlns="http://www.w3.org/2000/svg" width="40" height="42" viewBox="0 0 40 42"><g><g><g><path fill="currentColor" d="M34.446 26.353v9.445H5.553v-9.445H0v12.222a2.776 2.776 0 0 0 2.78 2.775H37.22a2.776 2.776 0 0 0 2.78-2.775V26.353z"/></g><g><path fill="currentColor" d="M19.491 25.416l-7.95-9.607s-1.21-1.142.102-1.142h4.48v-1.953V.68S15.945 0 16.971 0h6.307c.74 0 .723.574.723.574v13.804h4.135c1.592 0 .393 1.196.393 1.196s-6.764 8.98-7.708 9.922c-.678.683-1.33-.08-1.33-.08z"/></g></g></g></svg>
