<svg xmlns="http://www.w3.org/2000/svg" width="21" height="21" viewBox="0 0 21 21"><g><g><g><g><g><g><g><path fill="#62259f" d="M12.89 4.982c.174 0 .315.14.316.314v1.888a.315.315 0 0 1-.315.315h-1.258a.314.314 0 0 1-.315-.315V5.296c0-.174.141-.314.315-.314zm-.313.629h-.63V6.87h.63z"/></g></g><g><g><path fill="#62259f" d="M2.23 8.182c.198 0 .358-.141.358-.315v-4.72h15.805v4.72c0 .174.161.315.36.315.198 0 .36-.141.36-.315V2.832c0-.174-.162-.315-.36-.315H10.49V.629h1.796v.63H11.21c-.199 0-.36.141-.36.315 0 .174.161.315.36.315h1.437c.199 0 .359-.142.358-.316V.315c0-.174-.16-.314-.358-.315h-2.515c-.198 0-.36.141-.36.315v2.202H2.23c-.199 0-.36.141-.36.315v5.035c0 .174.161.315.36.315z"/></g></g><g><g><path fill="#62259f" d="M16.434 4.982c.173 0 .314.14.315.314v1.888c0 .173-.14.314-.314.315h-1.26a.314.314 0 0 1-.314-.315V5.296c0-.173.14-.314.314-.314zm-.314.629h-.63V6.87h.629z"/></g></g><g><g><path fill="#62259f" d="M20.65 20.39H.33c-.186.01-.33.148-.33.315s.144.305.33.315H20.65c.194 0 .351-.141.351-.315 0-.174-.157-.315-.35-.315z"/></g></g><g><g><path fill="#62259f" d="M12.692 18.502c.174 0 .315-.14.315-.314v-4.406a.314.314 0 0 0-.092-.222c-.03-.03-.74-.722-2.426-.722-1.684 0-2.395.692-2.425.722a.314.314 0 0 0-.092.222v4.406a.315.315 0 1 0 .63 0v-4.253c.192-.133.69-.402 1.573-.456v3.135a.315.315 0 1 0 0 .63v.944a.315.315 0 1 0 .63 0v-.944a.315.315 0 1 0 0-.63v-3.135c.883.055 1.382.324 1.573.455v4.254c0 .173.14.314.314.314z"/></g></g><g><g><path fill="#62259f" d="M6.713 19.447c0 .173.141.314.315.314h6.923a.315.315 0 1 0 0-.63H7.028a.315.315 0 0 0-.315.316z"/></g></g><g><g><path fill="#62259f" d="M1.953 19.132V11.58h-.356c-.197 0-.357-.141-.357-.315 0-.174.16-.315.357-.315h17.789c.189.01.336.147.336.314s-.147.305-.336.315h-.356v7.553h.356c.197 0 .356.14.356.315 0 .174-.16.315-.356.315h-3.558c-.197 0-.356-.141-.356-.315 0-.174.16-.315.356-.315h.356v-7.553H4.8v7.553h.355c.197 0 .357.14.357.315 0 .174-.16.315-.357.315H1.597c-.197 0-.357-.141-.357-.315 0-.174.16-.315.357-.315zm14.942 0h1.423v-7.553h-1.423zm-14.231 0h1.424v-7.553H2.664z"/></g></g><g><g><path fill="#62259f" d="M5.805 4.982c.174 0 .314.14.314.314v1.888c0 .173-.14.314-.314.315H4.546a.315.315 0 0 1-.315-.315V5.296c.001-.174.142-.314.315-.314zm-.315.629h-.63V6.87h.63z"/></g></g><g><g><path fill="#62259f" d="M9.348 4.982c.173 0 .314.14.315.314v1.888a.315.315 0 0 1-.315.315H8.09a.315.315 0 0 1-.315-.315V5.296c0-.174.141-.314.315-.314zm-.314.629h-.63V6.87h.63z"/></g></g></g></g></g></g></g></svg>