<svg xmlns="http://www.w3.org/2000/svg" width="21" height="21" viewBox="0 0 21 21"><g><g><g><path fill="#7835bb" d="M5.75 18.11h7.136a.31.31 0 0 0 0-.621H5.75a.31.31 0 0 0 0 .62zm7.446-2.194a.31.31 0 0 0-.31-.31H5.75a.31.31 0 0 0 0 .62h7.135a.31.31 0 0 0 .31-.31zm-6.02-9.804c.155-.267.31-.315.609-.261.664.12 1.71-.093 2.276-.291.297.505.938.971 1.399 1.256a2.13 2.13 0 0 1-1.202 1.863 2.166 2.166 0 0 1-1.878 0 2.132 2.132 0 0 1-1.205-1.927zm.261-2.037c.37-.385.968-.564 1.882-.564.913 0 1.51.18 1.88.564.397.412.583 1.106.585 2.217-.483-.305-1.171-.831-1.26-1.21a.31.31 0 0 0-.194-.227.32.32 0 0 0-.105-.018.295.295 0 0 0-.186.066c-.182.114-1.444.463-2.144.338-.459-.083-.77.023-1 .238.076-.653.253-1.103.542-1.404zm2.647 6.087a.765.765 0 0 1-1.53 0v-.758c.5.148 1.03.148 1.53 0zm-2.54-.594c-1.16 0-2.102.94-2.103 2.102v1.836c0 .17.138.31.31.31h7.134a.31.31 0 0 0 .31-.31V11.67c0-.229-.036-.455-.11-.671a.31.31 0 1 0-.587.198c.051.152.077.312.077.473v1.525H6.061V11.67a1.484 1.484 0 0 1 1.483-1.482h.391a1.383 1.383 0 1 0 2.768 0h.39c.274 0 .541.075.774.218a.31.31 0 0 0 .325-.529c-.33-.202-.711-.31-1.099-.31h-.39v-.423a2.74 2.74 0 0 0 1.354-2.026.307.307 0 0 0 .337-.296c.062-1.594-.168-2.573-.748-3.177-.495-.514-1.235-.754-2.329-.754-1.093 0-1.832.24-2.326.754-.58.603-.81 1.583-.748 3.177a.31.31 0 0 0 .31.298c.01 0 .018-.003.028-.004.109.85.61 1.6 1.353 2.028v.424zm13.169-2.376a.31.31 0 0 0-.31.31v1.226a.31.31 0 0 0 .62 0V7.502a.31.31 0 0 0-.31-.31zM18.618 20.38h-1.162V.62h1.162zM2.363 4.364H.62v-.443H2.363zm0 4.238H.62V8.16h1.743zm0 4.239H.62v-.443h1.743zm0 4.238H.62v-.443h1.743zM20.713 0H1.493a.31.31 0 0 0-.311.31v2.991H.31a.31.31 0 0 0-.31.31v1.063c0 .172.139.31.31.31h.872V7.54H.31a.31.31 0 0 0-.31.31v1.064c0 .17.139.31.31.31h.872v2.554H.31a.31.31 0 0 0-.31.31v1.064c0 .171.139.31.31.31h.872v2.554H.31a.31.31 0 0 0-.31.31v1.064c0 .171.139.31.31.31h.872v2.99c0 .172.139.311.31.311h7a.31.31 0 0 0 0-.62h-6.69v-2.681h.87a.31.31 0 0 0 .311-.31v-1.063a.31.31 0 0 0-.31-.31h-.87V13.46h.87a.31.31 0 0 0 .31-.31v-1.063a.31.31 0 0 0-.31-.31h-.87V9.222h.87a.31.31 0 0 0 .31-.31V7.849a.31.31 0 0 0-.31-.31h-.87V4.985h.87a.31.31 0 0 0 .31-.31V3.61a.31.31 0 0 0-.31-.31h-.87V.621h15.032V20.38h-6.719a.31.31 0 0 0 0 .62h10.597a.31.31 0 0 0 .31-.31V10.338a.31.31 0 0 0-.62 0V20.38H19.24V.62h1.164v5.412a.31.31 0 0 0 .62 0V.31a.31.31 0 0 0-.31-.31z"/></g></g></g></svg>