<svg xmlns="http://www.w3.org/2000/svg" width="30" height="30" viewBox="0 0 30 30"><g><g><g><g><g><path fill="#fff" d="M7.5 1.875V0H.937A.937.937 0 0 0 0 .938V7.5h1.875V3.197l8.71 8.71 1.321-1.323-8.71-8.709z"/></g><g><path fill="#fff" d="M29.063 0H22.5v1.875h4.303l-8.71 8.71 1.323 1.321 8.709-8.71V7.5H30V.937A.937.937 0 0 0 29.062 0z"/></g><g><path fill="#fff" d="M28.125 26.803l-8.71-8.71-1.321 1.323 8.71 8.709H22.5V30h6.563c.517 0 .937-.42.937-.938V22.5h-1.875z"/></g><g><path fill="#fff" d="M10.584 18.084l-8.709 8.72V22.5H0v6.562c0 .518.42.938.938.938H7.5v-1.875H3.197l8.71-8.71z"/></g></g></g></g></g></svg>