<svg xmlns="http://www.w3.org/2000/svg" width="21" height="19" viewBox="0 0 21 19"><g><g><g><path fill="#62259f" d="M20.323 13.887c0 .561-.455 1.016-1.017 1.016a.339.339 0 0 0-.338.339v2.652l-2.806-2.89a.338.338 0 0 0-.243-.1H9.484a1.016 1.016 0 0 1-1.016-1.017V8.13c0-.561.455-1.016 1.016-1.016h9.822c.562 0 1.017.455 1.017 1.016zM5.08 8.467a.338.338 0 0 0-.243.102l-2.806 2.888v-2.65a.339.339 0 0 0-.338-.34A1.016 1.016 0 0 1 .677 7.453V1.694c0-.562.455-1.017 1.017-1.017h9.822c.561 0 1.016.455 1.016 1.017v4.741H9.484a1.681 1.681 0 0 0-1.12.434L6.406 4.91l1.186-1.185h.876a.339.339 0 0 0 0-.678H6.435v-.677a.339.339 0 0 0-.677 0v.677H4.065a.339.339 0 0 0 0 .678h2.569L3.317 7.043a.339.339 0 1 0 .479.479L5.927 5.39 7.89 7.352a.34.34 0 0 0 .072.049c-.112.226-.17.475-.172.728v.339zm14.225-2.032H13.21V1.694A1.696 1.696 0 0 0 11.516 0H1.694A1.696 1.696 0 0 0 0 1.694v5.758c0 .804.567 1.497 1.355 1.66v3.18a.339.339 0 0 0 .581.237l3.288-3.384H7.79v4.742a1.696 1.696 0 0 0 1.694 1.694h6.292l3.288 3.384a.338.338 0 0 0 .581-.237v-3.181A1.696 1.696 0 0 0 21 13.887V8.13a1.696 1.696 0 0 0-1.694-1.694z"/></g><g><path fill="#62259f" d="M14.097 11.177l.433-.867.347.867zm1.734.562a.332.332 0 0 0-.222-.556l-.73-1.825a.339.339 0 0 0-.3-.213.322.322 0 0 0-.318.187l-1.693 3.387a.339.339 0 1 0 .606.303l.584-1.167h1.388l.457 1.142a.338.338 0 0 0 .442.189.339.339 0 0 0 .19-.44z"/></g><g><path fill="#62259f" d="M19.645 8.129h-2.37a.339.339 0 0 0 0 .677h2.37a.339.339 0 0 0 0-.677z"/></g><g><path fill="#62259f" d="M16.13 8.156a.35.35 0 0 0-.112.071.339.339 0 1 0 .112-.071z"/></g><g><path fill="#62259f" d="M9.484 2.032h2.37a.339.339 0 0 0 0-.677h-2.37a.339.339 0 0 0 0 .677z"/></g><g><path fill="#62259f" d="M8.227 1.934a.335.335 0 0 0 .37.071.394.394 0 0 0 .111-.071.335.335 0 0 0 .071-.37.39.39 0 0 0-.07-.11.335.335 0 0 0-.055-.042.188.188 0 0 0-.058-.03.311.311 0 0 0-.257 0 .35.35 0 0 0-.112.071.39.39 0 0 0-.07.112.318.318 0 0 0 0 .257.394.394 0 0 0 .07.112z"/></g></g></g></svg>