<svg xmlns="http://www.w3.org/2000/svg" width="25" height="15" viewBox="0 0 25 15"><g><g><g><g><path fill="#fa0" d="M12.517 14.063c-3.928 0-7.805-2.204-11.5-6.563C4.72 3.14 8.589.938 12.517.938c3.929 0 7.806 2.203 11.501 6.562-3.695 4.36-7.572 6.563-11.5 6.563zM24.925 7.19C20.97 2.419 16.8 0 12.517 0 8.235 0 4.065 2.418.11 7.19a.503.503 0 0 0 0 .628C4.065 12.58 8.235 15 12.517 15c4.283 0 8.453-2.419 12.408-7.19a.49.49 0 0 0 0-.62z"/></g><g><path fill="#fa0" d="M8.727 7.59c0-2.098 1.697-3.8 3.79-3.8a3.795 3.795 0 0 1 3.79 3.8c0 2.1-1.697 3.801-3.79 3.801a3.795 3.795 0 0 1-3.79-3.8z"/></g></g></g></g></svg>