<svg xmlns="http://www.w3.org/2000/svg" width="19" height="19" viewBox="0 0 19 19"><g><g><g><g/></g><g><g><g><path fill="#7835bb" d="M18.034 14.988a3.05 3.05 0 0 1-3.046 3.046H4.01a3.05 3.05 0 0 1-3.046-3.046V4.012A3.05 3.05 0 0 1 4.011.966h10.977a3.05 3.05 0 0 1 3.046 3.046v10.976zM14.988 0H4.01A4.017 4.017 0 0 0 0 4.012v10.976C-.001 17.2 1.799 19 4.011 19h10.977C17.2 19 19 17.2 19 14.988V4.012C19 1.8 17.2 0 14.988 0z"/></g></g></g><g><g><g><path fill="#7835bb" d="M14.483 9.214a5.005 5.005 0 0 0-4.754-4.7 4.997 4.997 0 0 0-5.216 5.219 5.005 5.005 0 0 0 4.704 4.75 4.963 4.963 0 0 0 2.917-.746.479.479 0 0 0 .086-.744l-.007-.007a.481.481 0 0 0-.596-.064 4 4 0 0 1-2.16.603c-2.239-.023-4.045-1.902-3.982-4.14a4.03 4.03 0 0 1 4.282-3.902 4.036 4.036 0 0 1 3.754 3.679 4.005 4.005 0 0 1-.455 2.22.48.48 0 0 0 .082.567l.007.007a.477.477 0 0 0 .757-.108 4.961 4.961 0 0 0 .581-2.634z"/></g></g></g><g><g><g><path fill="#7835bb" d="M13.796 3.218a1.288 1.288 0 1 1 2.576 0 1.288 1.288 0 0 1-2.576 0z"/></g></g></g></g></g></svg>