<svg xmlns="http://www.w3.org/2000/svg" width="23" height="21" viewBox="0 0 23 21"><defs><clipPath id="1jqva">
  <path fill="#fff" d="M11.413 21l-1.598-1.598C3.88 14.152 0 10.614 0 6.277 0 2.74 2.74 0 6.277 0c1.94 0 3.88.913 5.136 2.397C12.668.913 14.609 0 16.549 0c3.538 0 6.277 2.74 6.277 6.277 0 4.337-3.88 7.875-9.815 13.125z"/>
</clipPath></defs><g><g><g><path fill="none" stroke="#7835bb" stroke-linecap="square" stroke-miterlimit="50" stroke-width="2" d="M11.413 21v0l-1.598-1.598C3.88 14.152 0 10.614 0 6.277 0 2.74 2.74 0 6.277 0c1.94 0 3.88.913 5.136 2.397C12.668.913 14.609 0 16.549 0c3.538 0 6.277 2.74 6.277 6.277 0 4.337-3.88 7.875-9.815 13.125z" clip-path="url(&quot;#1jqva&quot;)"/></g></g></g></svg>
