<svg xmlns="http://www.w3.org/2000/svg" width="17" height="15" viewBox="0 0 17 15"><g><g><g><path fill="#7835bb" d="M5.84 2.37L3.493.184a.706.706 0 0 0-.949 0L.197 2.371a.595.595 0 0 0 0 .883.706.706 0 0 0 .948 0l1.203-1.12v12.241c0 .345.3.625.67.625.37 0 .671-.28.671-.625V2.134l1.203 1.12c.13.123.302.183.474.183s.343-.06.474-.183a.595.595 0 0 0 0-.883z"/></g><g><path fill="none" stroke="#7835bb" stroke-miterlimit="50" d="M7.6 10.5h9"/></g><g><path fill="none" stroke="#7835bb" stroke-miterlimit="50" d="M7.6 7.5h7"/></g><g><path fill="none" stroke="#7835bb" stroke-miterlimit="50" d="M7.565 4.5h5"/></g></g></g></svg>