<svg xmlns="http://www.w3.org/2000/svg" width="18" height="19" viewBox="0 0 18 19"><g><g><g><g><g><g><path fill="#7835bb" d="M16.265 9.729c0 2.92-2.39 5.308-5.31 5.308H7.533l-4.207 2.367-.13-3.767c-.905-.954-1.713-2.498-1.713-3.908V6.85c0-2.92 2.388-5.308 5.308-5.308h4.166c2.92 0 5.309 2.389 5.309 5.308zM6.959 0A6.967 6.967 0 0 0 0 6.96v2.66c0 1.833.744 3.6 2.027 4.897v3.515a.969.969 0 0 0 1.452.839l3.975-2.292h3.334a6.967 6.967 0 0 0 6.96-6.96V6.96A6.967 6.967 0 0 0 10.787 0z"/></g><g><path fill="#7835bb" d="M7.86 4.29a.255.255 0 0 1 .066-.408c1.348-.67 3.131-.297 4.337.909 1.205 1.205 1.578 2.987.908 4.334a.254.254 0 0 1-.455-.227c.574-1.154.24-2.695-.813-3.748-1.053-1.053-2.595-1.387-3.75-.812a.255.255 0 0 1-.292-.048z"/></g><g><path fill="#7835bb" d="M13.171 9.125a.255.255 0 0 1-.455-.227c.574-1.154.24-2.695-.813-3.748-.846-.846-2.007-1.227-3.03-1.047V3.59c1.16-.172 2.45.262 3.39 1.202 1.205 1.205 1.578 2.987.908 4.334z"/></g><g><path fill="#7835bb" d="M8.438 5.41A.254.254 0 0 1 8.51 5c.926-.434 2.095-.178 2.908.635.813.813 1.069 1.981.636 2.907a.255.255 0 0 1-.46-.216c.342-.732.127-1.669-.536-2.331-.662-.663-1.6-.878-2.332-.535a.254.254 0 0 1-.288-.05z"/></g><g><path fill="#7835bb" d="M12.054 8.542a.254.254 0 0 1-.46-.216c.342-.732.127-1.669-.535-2.331-.62-.619-1.478-.848-2.186-.595v-.532c.854-.228 1.835.057 2.545.767.814.813 1.069 1.981.636 2.907z"/></g><g><path fill="#7835bb" d="M9.01 6.527a.254.254 0 0 1 .09-.417c.488-.185 1.067-.041 1.476.367.409.409.553.988.368 1.476a.254.254 0 1 1-.475-.18c.112-.297.01-.673-.253-.936s-.64-.364-.936-.251a.255.255 0 0 1-.27-.059z"/></g><g><path fill="#7835bb" d="M9.01 6.527a.254.254 0 0 1 .09-.417c.488-.185 1.067-.041 1.476.367.409.409.553.988.368 1.476a.254.254 0 1 1-.475-.18c.112-.297.01-.673-.253-.936s-.64-.364-.936-.251a.255.255 0 0 1-.27-.059z"/></g><g><path fill="#7835bb" d="M7.174 6.081L5.409 4.316c-.225-.224-.542-.277-.705-.114l-.17.17c-.832.832-.986 2.045-.31 2.869a34.651 34.651 0 0 0 2.668 2.92c.863.896 1.898 1.83 2.92 2.668.824.675 2.036.521 2.868-.31l.17-.17c.163-.164.11-.48-.114-.705L10.971 9.88c-.419-.42-.695-.361-.858-.198 0 0-.223.226-.264.273-.158.158-.56.193-.924-.034-.33-.207-.672-.508-.98-.813-.304-.307-.605-.65-.812-.98-.228-.363-.192-.765-.033-.924h-.001c.047-.04.273-.263.273-.263.163-.163.22-.44-.198-.859z"/></g></g></g></g></g></g></svg>