<svg xmlns="http://www.w3.org/2000/svg" width="165.366" height="36.444" viewBox="0 0 165.366 36.444">
  <g id="logo" transform="translate(-279.443 -59)">
    <path id="Path_733" data-name="Path 733" d="M20.572-5.772a9.515,9.515,0,0,1-4.662,1.11,7.994,7.994,0,0,1-8.4-8.288c0-4.921,3.441-8.288,8.473-8.288a8.765,8.765,0,0,1,6.7,2.923l3.848-3.552c-2.516-2.923-6.29-4.477-10.841-4.477-8.251,0-14.245,5.587-14.245,13.394S7.437.444,15.577.444A17.873,17.873,0,0,0,26.048-2.849V-13.357H20.572Zm31.6-4.107c0-6.4-4.514-10.323-10.36-10.323-6.068,0-10.619,4.292-10.619,10.249C31.191-4.033,35.668.3,42.55.3c3.589,0,6.364-1.11,8.214-3.219l-3.071-3.33A6.748,6.748,0,0,1,42.7-4.329c-3.034,0-5.143-1.517-5.7-4H52.059C52.1-8.806,52.17-9.435,52.17-9.879ZM41.847-15.836a4.73,4.73,0,0,1,4.884,4.144H36.926A4.713,4.713,0,0,1,41.847-15.836Zm26.936,10.8a3.89,3.89,0,0,1-2.331.74,2.322,2.322,0,0,1-2.479-2.627v-8.1h4.958v-4.44H63.973v-4.847H58.2v4.847H55.13v4.44H58.2v8.177C58.2-2.109,60.939.3,65.638.3a8.249,8.249,0,0,0,4.7-1.258ZM95.941.444c7.4,0,10.989-3.7,10.989-8.029,0-9.509-15.059-6.216-15.059-10.989,0-1.628,1.369-2.96,4.921-2.96A14.628,14.628,0,0,1,103.97-19.5l1.85-4.551a17.374,17.374,0,0,0-8.991-2.294c-7.363,0-10.915,3.663-10.915,8.066,0,9.62,15.059,6.29,15.059,11.137,0,1.591-1.443,2.775-5,2.775a15.234,15.234,0,0,1-8.547-2.7L85.4-2.553C87.69-.777,91.834.444,95.941.444ZM126.947,0h6.993l-9.028-11.47,8.288-8.436h-6.882l-8.436,7.992v-15.54H112.11V0h5.772V-5.069l2.775-2.738Zm13.8-22.681a3.319,3.319,0,0,0,3.589-3.33c0-1.776-1.443-3.108-3.589-3.108a3.3,3.3,0,0,0-3.589,3.219A3.3,3.3,0,0,0,140.748-22.681ZM137.862,0h5.772V-19.906h-5.772Z" transform="translate(278 95)" fill="#7835bb"/>
    <path id="Path_670" data-name="Path 670" d="M0,32.4V0" transform="translate(430.748 63)" fill="none" stroke="#62259f" stroke-width="5.5"/>
    <path id="Path_671" data-name="Path 671" d="M.015,36.4V0" transform="translate(442.043 59)" fill="none" stroke="#4a1281" stroke-width="5.5"/>
  </g>
</svg>
