<svg xmlns="http://www.w3.org/2000/svg" width="10" height="13" viewBox="0 0 10 13">
  <g id="user" transform="translate(-4.587 -9.047)" fill="none">
    <path d="M9.588,14.572a2.852,2.852,0,0,0,2.933-2.763A2.852,2.852,0,0,0,9.588,9.047,2.852,2.852,0,0,0,6.654,11.81,2.852,2.852,0,0,0,9.588,14.572Zm1.244.188H8.343A3.656,3.656,0,0,0,4.587,18.3v2.867l.008.045.21.062a18.068,18.068,0,0,0,5.107.776,11.03,11.03,0,0,0,4.459-.788l.2-.093h.021V18.3A3.655,3.655,0,0,0,10.832,14.76Z" stroke="none"/>
    <path d="M 9.588047027587891 10.04684448242188 C 8.521697044372559 10.04684448242188 7.654167175292969 10.83757400512695 7.654167175292969 11.80952453613281 C 7.654167175292969 12.78133392333984 8.521697044372559 13.57196426391602 9.588047027587891 13.57196426391602 C 10.65411758422852 13.57196426391602 11.52142715454102 12.78123474121094 11.52142715454102 11.80928421020508 C 11.52142715454102 10.83747482299805 10.65411758422852 10.04684448242188 9.588047027587891 10.04684448242188 M 8.343256950378418 15.76025485992432 C 6.823677062988281 15.76025485992432 5.587417602539063 16.89857482910156 5.587417602539063 18.29776382446289 L 5.587417602539063 20.45217895507813 C 7.070843696594238 20.84698104858398 8.523056983947754 21.04684448242188 9.911537170410156 21.04684448242188 C 11.73810195922852 21.04684448242188 13.00891304016113 20.69513320922852 13.58742713928223 20.49343109130859 L 13.58742713928223 18.29738426208496 C 13.58768653869629 17.63266372680664 13.30842781066895 17.00339508056641 12.80109786987305 16.52547454833984 C 12.27726745605469 16.03201484680176 11.57807731628418 15.76025485992432 10.83233737945557 15.76025485992432 L 8.343256950378418 15.76025485992432 M 9.588047027587891 9.046844482421875 C 11.20799732208252 9.046844482421875 12.52142715454102 10.28360366821289 12.52142715454102 11.80928421020508 C 12.52142715454102 13.33496475219727 11.20824718475342 14.57196426391602 9.588047027587891 14.57196426391602 C 7.968096733093262 14.57196426391602 6.654167175292969 13.3351936340332 6.654167175292969 11.80952453613281 C 6.654167175292969 10.28384399414063 7.968096733093262 9.046844482421875 9.588047027587891 9.046844482421875 Z M 8.343256950378418 14.76025390625 L 10.83233737945557 14.76025390625 C 12.90332698822021 14.76025390625 14.58817672729492 16.34729385375977 14.58742713928223 18.29776382446289 L 14.58742713928223 21.16505432128906 L 14.56645774841309 21.16505432128906 L 14.37051773071289 21.25838470458984 C 14.27192687988281 21.30562400817871 12.67193698883057 22.04684448242188 9.911537170410156 22.04684448242188 C 8.49826717376709 22.04684448242188 6.781217575073242 21.8528938293457 4.804826736450195 21.27131462097168 L 4.595157623291016 21.2094841003418 L 4.587417602539063 21.16457366943359 L 4.587417602539063 18.29776382446289 C 4.587417602539063 16.34729385375977 6.27226734161377 14.76025390625 8.343256950378418 14.76025390625 Z" stroke="none" fill="#7835bb"/>
  </g>
</svg>
